<?xml version="1.0" encoding="utf-8"?>
<!-- Generator: Adobe Illustrator 16.0.0, SVG Export Plug-In . SVG Version: 6.00 Build 0)  -->
<!DOCTYPE svg PUBLIC "-//W3C//DTD SVG 1.1//EN" "http://www.w3.org/Graphics/SVG/1.1/DTD/svg11.dtd">
<svg version="1.1" id="Capa_1" xmlns="http://www.w3.org/2000/svg" xmlns:xlink="http://www.w3.org/1999/xlink" x="0px" y="0px"
	 width="109px" height="55px" viewBox="0 0 109 55" enable-background="new 0 0 109 55" xml:space="preserve">
<g>
	<rect x="0.5" y="0.5" fill="#FFFFFF" stroke="#CACACA" stroke-miterlimit="10" width="108" height="54"/>
	<g>
		<polygon fill-rule="evenodd" clip-rule="evenodd" fill="#23579C" points="42.189,41 46.414,14 53.167,14 48.942,41 42.189,41 		
			"/>
		<path fill-rule="evenodd" clip-rule="evenodd" fill="#23579C" d="M73.421,15.129c-1.343-0.529-3.45-1.114-6.058-1.114
			c-6.669,0-11.367,3.556-11.394,8.636c-0.058,3.756,3.36,5.837,5.921,7.083c2.607,1.282,3.497,2.112,3.497,3.256
			c-0.021,1.743-2.112,2.557-4.056,2.557c-2.691,0-4.135-0.421-6.337-1.393l-0.885-0.422L53.167,39.6
			c1.58,0.717,4.504,1.356,7.527,1.386c7.085,0,11.694-3.498,11.753-8.916c0.031-2.974-1.781-5.249-5.668-7.111
			c-2.36-1.19-3.814-2.001-3.814-3.218c0.032-1.114,1.232-2.254,3.898-2.254c2.191-0.056,3.803,0.471,5.03,0.998l0.605,0.284
			L73.421,15.129L73.421,15.129z"/>
		<path fill-rule="evenodd" clip-rule="evenodd" fill="#23579C" d="M82.387,31c0.559,0,2.697-7.135,2.697-7.135
			c-0.026,0.055,0.559-1.44,0.885-2.413l0.475,2.124c0,0,1.279,6.423,1.559,7.423C86.943,31,83.72,31,82.387,31L82.387,31z
			 M90.726,14H85.5c-1.612,0-2.834,0.914-3.529,2.613L71.952,41h7.079c0,0,1.159-4,1.412-4c0.779,0,7.67,0,8.67,0
			c0.19,1,0.801,4,0.801,4h6.253L90.726,14L90.726,14z"/>
		<path fill-rule="evenodd" clip-rule="evenodd" fill="#23579C" d="M36.548,14l-6.611,18.048l-0.711-3.492
			c-1.232-4.164-5.057-8.419-9.34-10.66L25.938,41h7.138L43.69,14H36.548L36.548,14z"/>
		<path fill-rule="evenodd" clip-rule="evenodd" fill="#E5A42F" d="M23.8,14H12.943l-0.11,0.77
			c8.465,2.17,14.075,7.515,16.393,13.786L26.86,16.379C26.471,14.709,25.275,15,23.8,14L23.8,14z"/>
	</g>
</g>
</svg>
