<?xml version="1.0" encoding="utf-8"?>
<!-- Generator: Adobe Illustrator 16.0.0, SVG Export Plug-In . SVG Version: 6.00 Build 0)  -->
<!DOCTYPE svg PUBLIC "-//W3C//DTD SVG 1.1//EN" "http://www.w3.org/Graphics/SVG/1.1/DTD/svg11.dtd">
<svg version="1.1" id="Capa_1" xmlns="http://www.w3.org/2000/svg" xmlns:xlink="http://www.w3.org/1999/xlink" x="0px" y="0px"
	 width="109px" height="55px" viewBox="0 0 109 55" enable-background="new 0 0 109 55" xml:space="preserve">
<g>
	<rect x="0.5" y="0.5" fill="#FFFFFF" stroke="#CACACA" stroke-miterlimit="10" width="108" height="54"/>
	<g>
		<g>
			<g>
				<g>
					<g>
						<defs>
							<rect id="SVGID_1_" x="1" y="1" width="107" height="53"/>
						</defs>
						
							<radialGradient id="SVGID_2_" cx="142.1055" cy="-2052.4141" r="115.9713" gradientTransform="matrix(1.0708 0 0 0.5552 -133.3085 1149.6482)" gradientUnits="userSpaceOnUse">
							<stop  offset="0" style="stop-color:#9DD2F3"/>
							<stop  offset="0.0846" style="stop-color:#97CEF1"/>
							<stop  offset="0.1973" style="stop-color:#86C2EC"/>
							<stop  offset="0.3252" style="stop-color:#6BAEE4"/>
							<stop  offset="0.3708" style="stop-color:#5FA6E1"/>
							<stop  offset="0.4422" style="stop-color:#599CD9"/>
							<stop  offset="0.6173" style="stop-color:#4F8AC9"/>
							<stop  offset="0.7999" style="stop-color:#487FBF"/>
							<stop  offset="1" style="stop-color:#467BBC"/>
						</radialGradient>
						<use xlink:href="#SVGID_1_"  overflow="visible" fill="url(#SVGID_2_)"/>
						<clipPath id="SVGID_3_">
							<use xlink:href="#SVGID_1_"  overflow="visible"/>
						</clipPath>
					</g>
				</g>
			</g>
		</g>
		<g>
			<path fill="#FFFFFF" d="M6,28h4.433l1.049-2h2.349l1.043,2H24v-2.115L24.84,28h4.746L31,25.864V28h22.132l-0.01-4h0.442
				C53.875,24,54,23.715,54,24.221V28h12v-1.146C67,27.366,68.146,28,70.078,28h4.952l1.059-2h2.35l1.037,2H89v-2.583L90.448,28H98
				V12h-7v1.822L89.469,12H82v1.822L80.74,12H70.263C68.509,12,67,12.184,66,12.869V12h-7v0.869C58,12.163,56.614,12,55.419,12
				H29.001l-1.78,4.104L25.414,12H17v1.822L16.169,12h-7.09L2.125,28H6z M96,26h-4.198l-5.156-8.534L86.65,26h-5.542l-1.059-2
				h-5.662l-1.018,2h-3.187c-1.327,0-3.003-0.505-3.945-1.464c-0.964-0.975-1.454-2.38-1.454-4.456c0-1.691,0.301-2.88,1.465-4.097
				C67.134,15.072,68.509,15,70.384,15H73v2h-2.558c-0.996,0-1.565-0.029-2.107,0.497c-0.453,0.479-0.774,1.294-0.774,2.49
				c0,1.222,0.237,2.47,0.753,3.049C68.725,23.484,69.488,24,70.205,24h1.222l3.835-9h4.077L84,24.963V15h4.094L93,22.124V15h3V26z
				 M64,26h-3V15h3V26z M59.096,17.272c0,1.802-1.212,2.75-1.913,3.029c0.596,0.231,1.112,0.622,1.349,0.964
				C58.916,21.819,59,22.34,59,23.341V26h-2.765l-0.011-1.643c0-0.674,0.068-1.495-0.438-2.037c-0.4-0.406-0.995-0.32-1.98-0.32H51
				v4h-2V15h5.428c1.381,0,2.413-0.354,3.293,0.151C58.584,15.657,59.096,15.998,59.096,17.272z M47,26h-9V15h9v2h-7v2h6v1.96
				l-6-0.01V24h7V26z M36,26h-3.622l-0.016-8.902L28.417,26H26.03L22,16.656V26h-5.468l-1.037-2H9.827l-1.054,2H5.818l4.862-11
				h4.051L20,24.979V15h3.802l3.556,7.728L30.634,15H36V26z M79.118,21l-1.887-4.53L75.367,21H79.118z M55.534,19.321
				C55.166,19.532,54.724,20,54.191,20H51v-3h3.233c0.479,0,0.975-0.195,1.296-0.016c0.353,0.174,0.568,0.644,0.568,1.124
				C56.098,18.608,55.888,19.121,55.534,19.321z M14.51,21l-1.859-4.53L10.796,21H14.51z"/>
			<path fill="#FFFFFF" d="M58.521,37.971c0,3.155-2.354,4.029-4.741,4.029H51v4h-5.896l-3.351-3.767L38.272,46H28V34h10.44
				l3.346,3.729L45.247,34h8.691C56.098,34,58.521,34.816,58.521,37.971z M36.892,43H31v-2h6v-2h-6v-2h6.019l2.977,2.987L36.892,43z
				 M48,44.148l-4.172-4.641L48,35.02V44.148z M53.912,40H51v-3h2.938c0.984,0,1.664,0.449,1.664,1.45
				C55.603,39.435,54.955,40,53.912,40z M73,34h9v3h-7v2h7v2h-7v1.805l7,0.011V46h-9V34z M68.825,39.887
				c0.605,0.222,1.295,0.622,1.527,0.959C70.737,41.404,71,41.92,71,42.926V46h-3v-2.247c0-0.685,0.004-1.206-0.501-1.732
				C67.103,41.604,66.438,42,65.448,42H63v4h-3V34h6.08c1.386,0,2.387-0.046,3.276,0.439c0.859,0.511,1.396,1.18,1.396,2.476
				C70.753,38.728,69.541,39.603,68.825,39.887z M67.181,38.621C66.823,38.832,66.37,39,65.843,39H63v-2h2.886
				c0.484,0,0.975-0.414,1.295-0.224c0.354,0.189,0.564,0.398,0.564,0.888C67.745,38.149,67.534,38.405,67.181,38.621z
				 M91.733,39.17c0.537,0.554,0.816,1.659,0.816,2.823c0,2.455-1.532,4.007-4.271,4.007H83v-3h5.257c0.521,0,0.88-0.2,1.111-0.416
				c0.185-0.169,0.321-0.487,0.321-0.803c0-0.332-0.142-0.633-0.337-0.787c-0.205-0.179-0.49-0.269-0.964-0.274
				c-2.544-0.084-5.731,0.175-5.731-3.428c0-1.649,1.038-3.292,3.888-3.292H92v3h-4.986c-0.5,0-0.821-0.371-1.096-0.187
				c-0.295,0.185-0.405,0.268-0.405,0.625c0,0.427,0.253,0.624,0.596,0.75c0.284,0.1,0.59,0.077,1.053,0.083l1.47,0.012
				C90.111,38.325,91.117,38.554,91.733,39.17z M103,43.722C102,44.696,100.642,46,98.897,46H94v-3h4.877
				c0.516,0,0.88-0.2,1.101-0.416c0.185-0.169,0.326-0.487,0.326-0.803c0-0.332-0.142-0.633-0.331-0.787
				c-0.206-0.179-0.49-0.269-0.959-0.274c-2.555-0.084-5.742,0.175-5.742-3.428c0-1.649,1.049-3.292,3.898-3.292H103v-2h-5.445
				C96.032,32,95,31.891,94,32.459V32h-7.302c-1.186,0-2.582,0.3-3.251,0.932L83.453,32H70v0.459C69,31.701,67.308,32,66.476,32H58
				v0.459C57,31.648,55.013,32,53.875,32h-9.824l-2.244,2.438L39.705,32H25v16h14.426l2.317-2.761l2.287,2.326l8.97-0.14V44h0.67
				c1.169,0,3.33-0.342,4.33-0.868V48h7v-4h0.127C65.58,44,66,43.301,66,43.743V48h21.852C89.258,48,91,47.057,92,46.403V48h6.603
				c1.47,0,3.397-0.786,4.397-1.312V43.722z M103,37h-5.372c-0.495,0-0.827-0.371-1.096-0.187c-0.284,0.185-0.4,0.268-0.4,0.625
				c0,0.427,0.242,0.624,0.601,0.75c0.279,0.1,0.591,0.077,1.049,0.083l1.47,0.012c1.485,0.042,2.683,0.283,3.294,0.899
				c0.1,0.09,0.455,0.183,0.455,0.278V37z"/>
		</g>
	</g>
</g>
</svg>
