<?xml version="1.0" encoding="utf-8"?>
<!-- Generator: Adobe Illustrator 16.0.0, SVG Export Plug-In . SVG Version: 6.00 Build 0)  -->
<!DOCTYPE svg PUBLIC "-//W3C//DTD SVG 1.1//EN" "http://www.w3.org/Graphics/SVG/1.1/DTD/svg11.dtd">
<svg version="1.1" id="Capa_1" xmlns="http://www.w3.org/2000/svg" xmlns:xlink="http://www.w3.org/1999/xlink" x="0px" y="0px"
	 width="109px" height="55px" viewBox="0 0 109 55" enable-background="new 0 0 109 55" xml:space="preserve">
<g>
	<rect x="0.5" y="0.5" fill="#FFFFFF" stroke="#CACACA" stroke-miterlimit="10" width="108" height="54"/>
	<g>
		<polygon fill-rule="evenodd" clip-rule="evenodd" fill="#E9B140" points="68.913,49.925 70.025,49.896 71.123,49.816 
			72.198,49.678 73.267,49.489 74.306,49.25 75.331,48.958 76.334,48.617 77.315,48.231 78.274,47.796 79.205,47.323 80.106,46.8 
			80.986,46.24 81.829,45.637 82.643,44.997 83.428,44.321 84.176,43.602 84.896,42.853 85.572,42.068 86.211,41.254 86.815,40.411 
			87.375,39.532 87.898,38.63 88.37,37.7 88.806,36.74 89.191,35.759 89.533,34.756 89.824,33.731 90.064,32.692 90.253,31.624 
			90.391,30.548 90.471,29.45 90.5,28.338 90.471,27.233 90.391,26.143 90.253,25.067 90.064,24.014 89.824,22.974 89.533,21.957 
			89.191,20.954 88.806,19.979 88.37,19.027 87.898,18.097 87.375,17.203 86.815,16.324 86.211,15.48 85.572,14.674 84.896,13.889 
			84.176,13.14 83.428,12.428 82.643,11.752 81.829,11.112 80.986,10.509 80.106,9.949 79.205,9.433 78.274,8.961 77.315,8.525 
			76.334,8.14 75.331,7.798 74.306,7.507 73.267,7.268 72.198,7.078 71.123,6.94 70.025,6.86 68.913,6.831 67.808,6.86 66.71,6.94 
			65.635,7.078 64.574,7.268 63.534,7.507 62.509,7.798 61.514,8.14 60.533,8.525 59.58,8.961 58.657,9.433 57.756,9.949 
			56.884,10.509 56.041,11.112 55.227,11.752 54.449,12.428 53.7,13.14 52.988,13.889 52.312,14.674 51.672,15.48 51.077,16.324 
			50.517,17.203 50.001,18.097 49.521,19.027 49.092,19.979 48.707,20.954 48.373,21.957 48.082,22.974 47.842,24.014 
			47.653,25.067 47.515,26.143 47.435,27.233 47.406,28.338 47.435,29.45 47.515,30.548 47.653,31.624 47.842,32.692 48.082,33.731 
			48.373,34.756 48.707,35.759 49.092,36.74 49.521,37.7 50.001,38.63 50.517,39.532 51.077,40.411 51.672,41.254 52.312,42.068 
			52.988,42.853 53.7,43.602 54.449,44.321 55.227,44.997 56.041,45.637 56.884,46.24 57.756,46.8 58.657,47.323 59.58,47.796 
			60.533,48.231 61.514,48.617 62.509,48.958 63.534,49.25 64.574,49.489 65.635,49.678 66.71,49.816 67.808,49.896 68.913,49.925 
			68.913,49.925 		"/>
		<polygon fill-rule="evenodd" clip-rule="evenodd" fill="#CB2030" points="40.086,49.925 41.191,49.896 42.289,49.816 
			43.365,49.678 44.426,49.489 45.465,49.25 46.49,48.958 47.486,48.617 48.467,48.231 49.419,47.796 50.342,47.323 51.244,46.8 
			52.116,46.24 52.959,45.637 53.773,44.997 54.551,44.321 55.299,43.602 56.011,42.853 56.688,42.068 57.327,41.254 57.923,40.411 
			58.483,39.532 58.999,38.63 59.479,37.7 59.907,36.74 60.293,35.759 60.627,34.756 60.917,33.731 61.158,32.692 61.347,31.624 
			61.485,30.548 61.564,29.45 61.594,28.338 61.564,27.233 61.485,26.143 61.347,25.067 61.158,24.014 60.917,22.974 60.627,21.957 
			60.293,20.954 59.907,19.979 59.479,19.027 58.999,18.097 58.483,17.203 57.923,16.324 57.327,15.48 56.688,14.674 56.011,13.889 
			55.299,13.14 54.551,12.428 53.773,11.752 52.959,11.112 52.116,10.509 51.244,9.949 50.342,9.433 49.419,8.961 48.467,8.525 
			47.486,8.14 46.49,7.798 45.465,7.507 44.426,7.268 43.365,7.078 42.289,6.94 41.191,6.86 40.086,6.831 38.975,6.86 37.877,6.94 
			36.801,7.078 35.733,7.268 34.694,7.507 33.669,7.798 32.666,8.14 31.685,8.525 30.725,8.961 29.795,9.433 28.894,9.949 
			28.014,10.509 27.171,11.112 26.357,11.752 25.572,12.428 24.823,13.14 24.104,13.889 23.428,14.674 22.788,15.48 22.185,16.324 
			21.625,17.203 21.102,18.097 20.629,19.027 20.193,19.979 19.808,20.954 19.467,21.957 19.176,22.974 18.936,24.014 
			18.747,25.067 18.609,26.143 18.529,27.233 18.5,28.338 18.529,29.45 18.609,30.548 18.747,31.624 18.936,32.692 19.176,33.731 
			19.467,34.756 19.808,35.759 20.193,36.74 20.629,37.7 21.102,38.63 21.625,39.532 22.185,40.411 22.788,41.254 23.428,42.068 
			24.104,42.853 24.823,43.602 25.572,44.321 26.357,44.997 27.171,45.637 28.014,46.24 28.894,46.8 29.795,47.323 30.725,47.796 
			31.685,48.231 32.666,48.617 33.669,48.958 34.694,49.25 35.733,49.489 36.801,49.678 37.877,49.816 38.975,49.896 40.086,49.925 
			40.086,49.925 		"/>
		<polygon fill-rule="evenodd" clip-rule="evenodd" fill="#E9B140" points="51.978,15.095 63.425,15.095 63.425,13.925 
			52.966,13.925 51.978,15.095 51.978,15.095 		"/>
		<polygon fill-rule="evenodd" clip-rule="evenodd" fill="#E9B140" points="50.262,17.697 63.425,17.697 63.425,16.527 
			50.953,16.527 50.262,17.697 50.262,17.697 		"/>
		<polygon fill-rule="evenodd" clip-rule="evenodd" fill="#E9B140" points="48.983,20.292 63.425,20.292 63.425,19.122 
			49.492,19.122 48.983,20.292 48.983,20.292 		"/>
		<polygon fill-rule="evenodd" clip-rule="evenodd" fill="#E9B140" points="48.104,22.894 63.425,22.894 63.425,21.724 
			48.467,21.724 48.104,22.894 48.104,22.894 		"/>
		<polygon fill-rule="evenodd" clip-rule="evenodd" fill="#E9B140" points="48.612,35.468 63.462,35.468 63.462,34.298 
			48.249,34.298 48.612,35.468 48.612,35.468 		"/>
		<polygon fill-rule="evenodd" clip-rule="evenodd" fill="#E9B140" points="49.71,38.07 63.462,38.07 63.462,36.9 49.165,36.9 
			49.71,38.07 49.71,38.07 		"/>
		<polygon fill-rule="evenodd" clip-rule="evenodd" fill="#E9B140" points="51.251,40.666 63.462,40.666 63.462,39.495 
			50.517,39.495 51.251,40.666 51.251,40.666 		"/>
		<polygon fill-rule="evenodd" clip-rule="evenodd" fill="#E9B140" points="53.374,43.267 63.462,43.267 63.462,42.09 52.349,42.09 
			53.374,43.267 53.374,43.267 		"/>
		<polygon fill-rule="evenodd" clip-rule="evenodd" fill="#E9B140" points="47.587,25.489 63.425,25.489 63.425,24.319 
			47.813,24.319 47.587,25.489 47.587,25.489 		"/>
		<polygon fill-rule="evenodd" clip-rule="evenodd" fill="#E9B140" points="57.24,32.874 63.28,32.874 63.28,31.704 57.458,31.704 
			57.24,32.874 57.24,32.874 		"/>
		<polygon fill-rule="evenodd" clip-rule="evenodd" fill="#E9B140" points="57.72,30.279 63.28,30.279 63.28,29.101 57.938,29.101 
			57.72,30.279 57.72,30.279 		"/>
		<polygon fill-rule="evenodd" clip-rule="evenodd" fill="#E9B140" points="47.188,29.101 48.758,29.101 48.758,30.279 
			47.261,30.279 47.188,29.101 47.188,29.101 		"/>
		<polygon fill-rule="evenodd" clip-rule="evenodd" fill="#FFFFFF" points="44.259,27.684 44.157,27.677 44.055,27.662 
			43.96,27.647 43.866,27.633 43.779,27.619 43.685,27.604 43.59,27.589 43.488,27.575 43.387,27.561 43.271,27.553 43.14,27.546 
			43.001,27.539 42.849,27.539 42.682,27.546 42.493,27.561 42.282,27.575 42.136,27.597 41.998,27.619 41.875,27.662 
			41.766,27.706 41.664,27.757 41.569,27.815 41.497,27.888 41.431,27.953 41.388,28.033 41.351,28.113 41.337,28.2 41.337,28.288 
			41.358,28.382 41.388,28.476 41.446,28.571 41.519,28.665 41.664,28.803 41.838,28.913 42.042,29.007 42.26,29.087 42.493,29.16 
			42.732,29.239 42.972,29.327 43.205,29.421 43.423,29.544 43.626,29.697 43.808,29.879 43.96,30.104 44.077,30.38 44.15,30.708 
			44.179,31.1 44.15,31.558 44.099,31.899 44.012,32.198 43.896,32.474 43.75,32.714 43.583,32.924 43.394,33.106 43.19,33.266 
			42.965,33.404 42.732,33.513 42.493,33.608 42.246,33.68 41.991,33.739 41.744,33.782 41.504,33.804 41.264,33.818 41.039,33.826 
			40.726,33.826 40.436,33.818 40.181,33.818 39.941,33.811 39.723,33.804 39.527,33.789 39.353,33.775 39.186,33.753 
			39.033,33.739 38.895,33.709 38.756,33.688 38.633,33.651 38.509,33.623 38.393,33.579 38.277,33.535 38.153,33.491 38.48,31.885 
			38.546,31.899 38.626,31.921 38.728,31.951 38.851,31.979 38.982,32.009 39.127,32.038 39.287,32.074 39.461,32.104 
			39.644,32.132 39.832,32.161 40.028,32.184 40.232,32.205 40.443,32.212 40.653,32.219 40.864,32.219 41.075,32.212 
			41.286,32.168 41.453,32.11 41.584,32.03 41.686,31.929 41.758,31.827 41.816,31.71 41.853,31.594 41.882,31.485 41.896,31.274 
			41.831,31.093 41.708,30.948 41.526,30.824 41.308,30.715 41.053,30.606 40.77,30.504 40.486,30.388 40.196,30.257 39.919,30.104 
			39.665,29.915 39.433,29.69 39.251,29.414 39.12,29.087 39.055,28.694 39.062,28.229 39.098,27.946 39.149,27.677 39.222,27.43 
			39.309,27.197 39.425,26.979 39.556,26.79 39.708,26.608 39.891,26.449 40.101,26.311 40.333,26.194 40.596,26.085 40.886,26.005 
			41.213,25.94 41.569,25.889 41.962,25.86 42.391,25.853 42.66,25.853 42.907,25.86 43.132,25.867 43.335,25.875 43.518,25.889 
			43.685,25.903 43.83,25.918 43.96,25.933 44.084,25.947 44.186,25.969 44.28,25.983 44.368,25.998 44.44,26.012 44.506,26.02 
			44.571,26.034 44.629,26.042 44.259,27.684 44.259,27.684 		"/>
		<polyline fill="none" stroke="#FFFFFF" stroke-width="0.216" stroke-miterlimit="2.6131" points="44.259,27.684 44.259,27.684 
			44.157,27.677 44.055,27.662 43.96,27.647 43.866,27.633 43.779,27.619 43.685,27.604 43.59,27.589 43.488,27.575 43.387,27.561 
			43.271,27.553 43.14,27.546 43.001,27.539 42.849,27.539 42.682,27.546 42.493,27.561 42.282,27.575 42.282,27.575 42.136,27.597 
			41.998,27.619 41.875,27.662 41.766,27.706 41.664,27.757 41.569,27.815 41.497,27.888 41.431,27.953 41.388,28.033 
			41.351,28.113 41.337,28.2 41.337,28.288 41.358,28.382 41.388,28.476 41.446,28.571 41.519,28.665 41.519,28.665 41.664,28.803 
			41.838,28.913 42.042,29.007 42.26,29.087 42.493,29.16 42.732,29.239 42.972,29.327 43.205,29.421 43.423,29.544 43.626,29.697 
			43.808,29.879 43.96,30.104 44.077,30.38 44.15,30.708 44.179,31.1 44.15,31.558 44.15,31.558 44.099,31.899 44.012,32.198 
			43.896,32.474 43.75,32.714 43.583,32.924 43.394,33.106 43.19,33.266 42.965,33.404 42.732,33.513 42.493,33.608 42.246,33.68 
			41.991,33.739 41.744,33.782 41.504,33.804 41.264,33.818 41.039,33.826 41.039,33.826 40.726,33.826 40.436,33.818 
			40.181,33.818 39.941,33.811 39.723,33.804 39.527,33.789 39.353,33.775 39.186,33.753 39.033,33.739 38.895,33.709 
			38.756,33.688 38.633,33.651 38.509,33.623 38.393,33.579 38.277,33.535 38.153,33.491 38.48,31.885 38.48,31.885 38.546,31.899 
			38.626,31.921 38.728,31.951 38.851,31.979 38.982,32.009 39.127,32.038 39.287,32.074 39.461,32.104 39.644,32.132 
			39.832,32.161 40.028,32.184 40.232,32.205 40.443,32.212 40.653,32.219 40.864,32.219 41.075,32.212 41.075,32.212 
			41.286,32.168 41.453,32.11 41.584,32.03 41.686,31.929 41.758,31.827 41.816,31.71 41.853,31.594 41.882,31.485 41.882,31.485 
			41.896,31.274 41.831,31.093 41.708,30.948 41.526,30.824 41.308,30.715 41.053,30.606 40.77,30.504 40.486,30.388 40.196,30.257 
			39.919,30.104 39.665,29.915 39.433,29.69 39.251,29.414 39.12,29.087 39.055,28.694 39.062,28.229 39.062,28.229 39.098,27.946 
			39.149,27.677 39.222,27.43 39.309,27.197 39.425,26.979 39.556,26.79 39.708,26.608 39.891,26.449 40.101,26.311 40.333,26.194 
			40.596,26.085 40.886,26.005 41.213,25.94 41.569,25.889 41.962,25.86 42.391,25.853 42.391,25.853 42.66,25.853 42.907,25.86 
			43.132,25.867 43.335,25.875 43.518,25.889 43.685,25.903 43.83,25.918 43.96,25.933 44.084,25.947 44.186,25.969 44.28,25.983 
			44.368,25.998 44.44,26.012 44.506,26.02 44.571,26.034 44.629,26.042 44.259,27.684 		"/>
		<polygon fill-rule="evenodd" clip-rule="evenodd" fill="#FFFFFF" points="45.981,24.246 47.995,24.246 47.697,26.005 
			48.911,26.005 48.649,27.647 47.37,27.611 46.672,31.667 46.665,31.812 46.701,31.936 46.774,32.03 46.868,32.11 46.999,32.161 
			47.145,32.205 47.304,32.234 47.479,32.249 47.639,32.241 47.784,32.227 47.915,32.205 48.031,32.176 48.125,32.147 
			48.191,32.125 48.234,32.11 48.249,32.104 47.995,33.455 47.944,33.491 47.893,33.521 47.842,33.549 47.791,33.579 47.74,33.601 
			47.682,33.623 47.617,33.644 47.551,33.666 47.479,33.688 47.406,33.702 47.319,33.717 47.231,33.731 47.137,33.746 47.028,33.76 
			46.912,33.775 46.788,33.789 46.236,33.789 45.945,33.768 45.69,33.739 45.458,33.695 45.262,33.644 45.095,33.579 44.957,33.506 
			44.833,33.419 44.738,33.324 44.666,33.223 44.615,33.099 44.579,32.975 44.557,32.837 44.549,32.685 44.549,32.524 
			44.571,32.358 44.593,32.176 45.981,24.246 45.981,24.246 		"/>
		<polyline fill="none" stroke="#FFFFFF" stroke-width="0.216" stroke-miterlimit="2.6131" points="45.981,24.246 47.995,24.246 
			47.697,26.005 48.911,26.005 48.649,27.647 47.37,27.611 46.672,31.667 46.672,31.667 46.665,31.812 46.701,31.936 46.774,32.03 
			46.868,32.11 46.999,32.161 47.145,32.205 47.304,32.234 47.479,32.249 47.479,32.249 47.639,32.241 47.784,32.227 47.915,32.205 
			48.031,32.176 48.125,32.147 48.191,32.125 48.234,32.11 48.249,32.104 47.995,33.455 47.995,33.455 47.944,33.491 47.893,33.521 
			47.842,33.549 47.791,33.579 47.74,33.601 47.682,33.623 47.617,33.644 47.551,33.666 47.479,33.688 47.406,33.702 47.319,33.717 
			47.231,33.731 47.137,33.746 47.028,33.76 46.912,33.775 46.788,33.789 46.236,33.789 46.236,33.789 45.945,33.768 45.69,33.739 
			45.458,33.695 45.262,33.644 45.095,33.579 44.957,33.506 44.833,33.419 44.738,33.324 44.666,33.223 44.615,33.099 
			44.579,32.975 44.557,32.837 44.549,32.685 44.549,32.524 44.571,32.358 44.593,32.176 45.981,24.246 		"/>
		<polygon fill-rule="evenodd" clip-rule="evenodd" fill="#FFFFFF" points="50.517,30.388 50.495,30.511 50.488,30.642 
			50.502,30.78 50.531,30.918 50.582,31.057 50.64,31.188 50.72,31.325 50.808,31.449 50.909,31.573 51.019,31.682 51.135,31.791 
			51.266,31.878 51.396,31.958 51.542,32.023 51.687,32.074 51.833,32.104 52.021,32.132 52.203,32.154 52.392,32.176 52.581,32.19 
			52.77,32.198 52.966,32.198 53.155,32.19 53.352,32.176 53.548,32.147 53.744,32.11 53.947,32.067 54.144,32.001 54.347,31.921 
			54.558,31.834 54.761,31.718 54.972,31.594 54.681,33.382 54.565,33.44 54.449,33.499 54.333,33.542 54.224,33.586 54.115,33.623 
			53.999,33.659 53.882,33.688 53.758,33.709 53.627,33.731 53.482,33.746 53.33,33.76 53.162,33.775 52.974,33.782 52.777,33.782 
			52.552,33.789 52.312,33.789 51.956,33.782 51.592,33.746 51.229,33.695 50.866,33.608 50.509,33.499 50.168,33.36 49.841,33.179 
			49.536,32.968 49.252,32.721 49.005,32.423 48.794,32.089 48.62,31.704 48.496,31.274 48.416,30.788 48.395,30.25 48.431,29.654 
			48.46,29.421 48.503,29.152 48.562,28.869 48.642,28.563 48.75,28.251 48.881,27.938 49.049,27.619 49.252,27.313 49.484,27.022 
			49.768,26.747 50.088,26.5 50.452,26.281 50.873,26.1 51.345,25.969 51.869,25.881 52.458,25.853 52.741,25.86 53.039,25.889 
			53.337,25.94 53.635,26.012 53.926,26.122 54.209,26.252 54.471,26.427 54.71,26.63 54.929,26.877 55.11,27.168 55.256,27.502 
			55.357,27.888 55.416,28.324 55.423,28.818 55.372,29.37 55.263,29.981 55.227,30.424 50.472,30.424 50.807,28.992 53.446,28.992 
			53.46,28.811 53.453,28.636 53.438,28.476 53.41,28.331 53.359,28.193 53.308,28.069 53.235,27.96 53.162,27.858 53.075,27.771 
			52.981,27.699 52.872,27.633 52.763,27.575 52.646,27.531 52.53,27.502 52.406,27.48 52.276,27.466 52.138,27.473 52.007,27.495 
			51.883,27.524 51.76,27.568 51.636,27.626 51.527,27.691 51.418,27.771 51.324,27.858 51.229,27.96 51.142,28.069 51.062,28.186 
			50.997,28.309 50.931,28.44 50.88,28.585 50.836,28.73 50.808,28.883 50.517,30.388 50.517,30.388 		"/>
		<polyline fill="none" stroke="#FFFFFF" stroke-width="0.216" stroke-miterlimit="2.6131" points="50.517,30.388 50.517,30.388 
			50.495,30.511 50.488,30.642 50.502,30.78 50.531,30.918 50.582,31.057 50.64,31.188 50.72,31.325 50.808,31.449 50.909,31.573 
			51.019,31.682 51.135,31.791 51.266,31.878 51.396,31.958 51.542,32.023 51.687,32.074 51.833,32.104 51.833,32.104 
			52.021,32.132 52.203,32.154 52.392,32.176 52.581,32.19 52.77,32.198 52.966,32.198 53.155,32.19 53.352,32.176 53.548,32.147 
			53.744,32.11 53.947,32.067 54.144,32.001 54.347,31.921 54.558,31.834 54.761,31.718 54.972,31.594 54.681,33.382 54.681,33.382 
			54.565,33.44 54.449,33.499 54.333,33.542 54.224,33.586 54.115,33.623 53.999,33.659 53.882,33.688 53.758,33.709 53.627,33.731 
			53.482,33.746 53.33,33.76 53.162,33.775 52.974,33.782 52.777,33.782 52.552,33.789 52.312,33.789 52.312,33.789 51.956,33.782 
			51.592,33.746 51.229,33.695 50.866,33.608 50.509,33.499 50.168,33.36 49.841,33.179 49.536,32.968 49.252,32.721 49.005,32.423 
			48.794,32.089 48.62,31.704 48.496,31.274 48.416,30.788 48.395,30.25 48.431,29.654 48.431,29.654 48.46,29.421 48.503,29.152 
			48.562,28.869 48.642,28.563 48.75,28.251 48.881,27.938 49.049,27.619 49.252,27.313 49.484,27.022 49.768,26.747 50.088,26.5 
			50.452,26.281 50.873,26.1 51.345,25.969 51.869,25.881 52.458,25.853 52.458,25.853 52.741,25.86 53.039,25.889 53.337,25.94 
			53.635,26.012 53.926,26.122 54.209,26.252 54.471,26.427 54.71,26.63 54.929,26.877 55.11,27.168 55.256,27.502 55.357,27.888 
			55.416,28.324 55.423,28.818 55.372,29.37 55.263,29.981 55.227,30.424 53.446,28.992 53.446,28.992 53.46,28.811 53.453,28.636 
			53.438,28.476 53.41,28.331 53.359,28.193 53.308,28.069 53.235,27.96 53.162,27.858 53.075,27.771 52.981,27.699 52.872,27.633 
			52.763,27.575 52.646,27.531 52.53,27.502 52.406,27.48 52.276,27.466 52.276,27.466 52.138,27.473 52.007,27.495 51.883,27.524 
			51.76,27.568 51.636,27.626 51.527,27.691 51.418,27.771 51.324,27.858 51.229,27.96 51.142,28.069 51.062,28.186 50.997,28.309 
			50.931,28.44 50.88,28.585 50.836,28.73 50.808,28.883 50.517,30.388 		"/>
		<polygon fill-rule="evenodd" clip-rule="evenodd" fill="#FFFFFF" points="67.852,26.441 67.757,26.39 67.663,26.347 
			67.561,26.296 67.452,26.245 67.343,26.201 67.219,26.158 67.096,26.114 66.965,26.07 66.827,26.034 66.689,26.005 66.536,25.976 
			66.384,25.954 66.216,25.94 66.049,25.925 65.875,25.925 65.693,25.925 65.511,25.925 65.322,25.94 65.126,25.961 64.923,25.998 
			64.719,26.056 64.516,26.136 64.312,26.238 64.108,26.369 63.913,26.528 63.724,26.717 63.542,26.95 63.367,27.219 63.208,27.539 
			63.055,27.902 62.917,28.309 62.8,28.774 62.757,29.036 62.728,29.29 62.713,29.544 62.72,29.792 62.742,30.039 62.793,30.271 
			62.858,30.489 62.938,30.708 63.047,30.904 63.178,31.093 63.331,31.26 63.505,31.413 63.702,31.543 63.927,31.653 64.174,31.747 
			64.45,31.812 64.544,31.834 64.654,31.856 64.784,31.871 64.93,31.885 65.089,31.899 65.257,31.899 65.439,31.899 65.62,31.885 
			65.809,31.863 65.999,31.827 66.18,31.776 66.362,31.718 66.543,31.638 66.71,31.543 66.863,31.427 67.009,31.296 66.682,33.237 
			66.638,33.273 66.594,33.317 66.536,33.368 66.471,33.412 66.391,33.47 66.289,33.521 66.173,33.571 66.042,33.615 65.875,33.666 
			65.686,33.702 65.468,33.731 65.213,33.76 64.93,33.775 64.603,33.782 64.232,33.775 63.825,33.753 63.491,33.717 63.156,33.644 
			62.822,33.535 62.488,33.39 62.168,33.215 61.863,32.997 61.572,32.743 61.303,32.452 61.063,32.125 60.86,31.762 60.685,31.354 
			60.555,30.911 60.467,30.424 60.438,29.908 60.453,29.341 60.533,28.738 60.59,28.44 60.656,28.149 60.729,27.866 60.801,27.597 
			60.881,27.342 60.976,27.088 61.07,26.848 61.172,26.623 61.281,26.397 61.39,26.187 61.514,25.983 61.645,25.794 61.775,25.612 
			61.921,25.438 62.066,25.278 62.219,25.125 62.386,24.98 62.553,24.842 62.728,24.719 62.909,24.603 63.105,24.493 63.302,24.399 
			63.505,24.312 63.716,24.231 63.941,24.159 64.167,24.101 64.399,24.05 64.646,24.006 64.894,23.97 65.155,23.941 65.417,23.926 
			65.693,23.919 65.926,23.926 66.151,23.941 66.369,23.962 66.587,23.992 66.791,24.021 66.987,24.064 67.176,24.101 67.35,24.145 
			67.518,24.188 67.663,24.231 67.801,24.275 67.917,24.319 68.019,24.355 68.106,24.384 68.172,24.413 68.215,24.428 
			67.852,26.441 67.852,26.441 		"/>
		<polyline fill="none" stroke="#FFFFFF" stroke-width="0.216" stroke-miterlimit="2.6131" points="67.852,26.441 67.852,26.441 
			67.757,26.39 67.663,26.347 67.561,26.296 67.452,26.245 67.343,26.201 67.219,26.158 67.096,26.114 66.965,26.07 66.827,26.034 
			66.689,26.005 66.536,25.976 66.384,25.954 66.216,25.94 66.049,25.925 65.875,25.925 65.693,25.925 65.693,25.925 65.511,25.925 
			65.322,25.94 65.126,25.961 64.923,25.998 64.719,26.056 64.516,26.136 64.312,26.238 64.108,26.369 63.913,26.528 63.724,26.717 
			63.542,26.95 63.367,27.219 63.208,27.539 63.055,27.902 62.917,28.309 62.8,28.774 62.8,28.774 62.757,29.036 62.728,29.29 
			62.713,29.544 62.72,29.792 62.742,30.039 62.793,30.271 62.858,30.489 62.938,30.708 63.047,30.904 63.178,31.093 63.331,31.26 
			63.505,31.413 63.702,31.543 63.927,31.653 64.174,31.747 64.45,31.812 64.45,31.812 64.544,31.834 64.654,31.856 64.784,31.871 
			64.93,31.885 65.089,31.899 65.257,31.899 65.439,31.899 65.62,31.885 65.809,31.863 65.999,31.827 66.18,31.776 66.362,31.718 
			66.543,31.638 66.71,31.543 66.863,31.427 67.009,31.296 66.682,33.237 66.682,33.237 66.638,33.273 66.594,33.317 66.536,33.368 
			66.471,33.412 66.391,33.47 66.289,33.521 66.173,33.571 66.042,33.615 65.875,33.666 65.686,33.702 65.468,33.731 65.213,33.76 
			64.93,33.775 64.603,33.782 64.232,33.775 63.825,33.753 63.825,33.753 63.491,33.717 63.156,33.644 62.822,33.535 62.488,33.39 
			62.168,33.215 61.863,32.997 61.572,32.743 61.303,32.452 61.063,32.125 60.86,31.762 60.685,31.354 60.555,30.911 60.467,30.424 
			60.438,29.908 60.453,29.341 60.533,28.738 60.533,28.738 60.59,28.44 60.656,28.149 60.729,27.866 60.801,27.597 60.881,27.342 
			60.976,27.088 61.07,26.848 61.172,26.623 61.281,26.397 61.39,26.187 61.514,25.983 61.645,25.794 61.775,25.612 61.921,25.438 
			62.066,25.278 62.219,25.125 62.386,24.98 62.553,24.842 62.728,24.719 62.909,24.603 63.105,24.493 63.302,24.399 63.505,24.312 
			63.716,24.231 63.941,24.159 64.167,24.101 64.399,24.05 64.646,24.006 64.894,23.97 65.155,23.941 65.417,23.926 65.693,23.919 
			65.693,23.919 65.926,23.926 66.151,23.941 66.369,23.962 66.587,23.992 66.791,24.021 66.987,24.064 67.176,24.101 67.35,24.145 
			67.518,24.188 67.663,24.231 67.801,24.275 67.917,24.319 68.019,24.355 68.106,24.384 68.172,24.413 68.215,24.428 
			67.852,26.441 		"/>
		<polygon fill-rule="evenodd" clip-rule="evenodd" fill="#FFFFFF" points="85.746,33.789 83.733,33.789 83.878,32.983 
			83.878,32.91 83.762,33.055 83.639,33.186 83.515,33.303 83.384,33.404 83.253,33.499 83.123,33.579 82.992,33.644 82.854,33.709 
			82.716,33.76 82.577,33.797 82.439,33.833 82.294,33.855 82.148,33.877 82.011,33.891 81.865,33.898 81.72,33.898 81.342,33.869 
			80.993,33.789 80.673,33.666 80.382,33.499 80.121,33.288 79.888,33.041 79.685,32.772 79.51,32.467 79.365,32.139 79.249,31.798 
			79.168,31.442 79.11,31.071 79.088,30.7 79.096,30.322 79.132,29.952 79.198,29.581 79.307,29.152 79.438,28.745 79.59,28.375 
			79.771,28.026 79.961,27.699 80.179,27.408 80.404,27.146 80.644,26.906 80.898,26.695 81.167,26.514 81.444,26.354 81.72,26.23 
			82.011,26.128 82.301,26.063 82.592,26.02 82.89,26.005 83.101,26.012 83.304,26.034 83.493,26.07 83.667,26.122 83.835,26.18 
			83.98,26.245 84.125,26.325 84.256,26.405 84.373,26.492 84.481,26.586 84.576,26.681 84.664,26.775 84.736,26.87 84.801,26.964 
			84.86,27.052 84.903,27.139 84.903,27.139 85.412,24.283 87.389,24.283 85.746,33.789 85.746,33.789 		"/>
		<polyline fill="none" stroke="#FFFFFF" stroke-width="0.216" stroke-miterlimit="2.6131" points="85.746,33.789 83.733,33.789 
			83.878,32.983 83.878,32.91 83.878,32.91 83.762,33.055 83.639,33.186 83.515,33.303 83.384,33.404 83.253,33.499 83.123,33.579 
			82.992,33.644 82.854,33.709 82.716,33.76 82.577,33.797 82.439,33.833 82.294,33.855 82.148,33.877 82.011,33.891 81.865,33.898 
			81.72,33.898 81.72,33.898 81.342,33.869 80.993,33.789 80.673,33.666 80.382,33.499 80.121,33.288 79.888,33.041 79.685,32.772 
			79.51,32.467 79.365,32.139 79.249,31.798 79.168,31.442 79.11,31.071 79.088,30.7 79.096,30.322 79.132,29.952 79.198,29.581 
			79.198,29.581 79.307,29.152 79.438,28.745 79.59,28.375 79.771,28.026 79.961,27.699 80.179,27.408 80.404,27.146 80.644,26.906 
			80.898,26.695 81.167,26.514 81.444,26.354 81.72,26.23 82.011,26.128 82.301,26.063 82.592,26.02 82.89,26.005 82.89,26.005 
			83.101,26.012 83.304,26.034 83.493,26.07 83.667,26.122 83.835,26.18 83.98,26.245 84.125,26.325 84.256,26.405 84.373,26.492 
			84.481,26.586 84.576,26.681 84.664,26.775 84.736,26.87 84.801,26.964 84.86,27.052 84.903,27.139 84.903,27.139 85.412,24.283 
			87.389,24.283 85.746,33.789 		"/>
		<polygon fill-rule="evenodd" clip-rule="evenodd" fill="#E9B140" points="82.454,32.03 82.657,32.016 82.846,31.973 
			83.021,31.921 83.188,31.841 83.341,31.754 83.486,31.645 83.624,31.522 83.748,31.391 83.856,31.246 83.958,31.085 
			84.053,30.918 84.133,30.744 84.206,30.562 84.264,30.374 84.314,30.177 84.351,29.981 84.387,29.777 84.409,29.566 84.409,29.37 
			84.401,29.167 84.38,28.978 84.351,28.796 84.3,28.622 84.242,28.455 84.169,28.309 84.082,28.171 83.987,28.055 83.878,27.953 
			83.755,27.866 83.624,27.808 83.486,27.771 83.333,27.757 83.137,27.771 82.956,27.8 82.788,27.858 82.621,27.931 82.476,28.026 
			82.331,28.142 82.207,28.266 82.083,28.404 81.974,28.563 81.872,28.73 81.778,28.905 81.698,29.094 81.625,29.29 81.567,29.486 
			81.509,29.697 81.466,29.908 81.429,30.228 81.444,30.577 81.495,30.933 81.589,31.274 81.734,31.573 81.923,31.812 
			82.163,31.973 82.454,32.03 82.454,32.03 		"/>
		<polygon fill-rule="evenodd" clip-rule="evenodd" fill="#FFFFFF" points="37.819,32.176 37.528,33.789 35.697,33.789 
			35.748,33.491 35.784,33.223 35.813,33.019 35.842,32.91 35.74,33.026 35.624,33.143 35.486,33.251 35.333,33.354 35.159,33.455 
			34.977,33.542 34.788,33.629 34.592,33.702 34.381,33.768 34.17,33.818 33.959,33.862 33.742,33.891 33.531,33.906 33.32,33.913 
			33.116,33.891 32.92,33.862 32.666,33.797 32.433,33.724 32.229,33.629 32.048,33.521 31.888,33.404 31.743,33.273 31.626,33.135 
			31.524,32.99 31.438,32.837 31.365,32.677 31.307,32.518 31.263,32.358 31.234,32.19 31.212,32.023 31.198,31.863 31.198,31.704 
			31.219,31.42 31.263,31.151 31.335,30.896 31.43,30.649 31.546,30.417 31.677,30.206 31.83,30.003 32.004,29.821 32.186,29.654 
			32.39,29.501 32.6,29.363 32.818,29.247 33.051,29.145 33.291,29.065 33.538,29 33.792,28.956 33.807,28.956 33.843,28.949 
			33.894,28.941 33.974,28.934 34.061,28.919 34.163,28.913 34.272,28.898 34.396,28.883 34.519,28.869 34.643,28.854 
			34.773,28.847 34.89,28.833 35.006,28.825 35.115,28.818 35.217,28.811 35.297,28.811 35.464,28.811 35.639,28.818 35.798,28.825 
			35.958,28.825 36.089,28.833 36.191,28.84 36.264,28.847 36.285,28.847 36.3,28.796 36.344,28.665 36.38,28.513 36.395,28.375 
			36.365,28.214 36.3,28.069 36.213,27.938 36.097,27.83 35.958,27.735 35.806,27.669 35.631,27.626 35.442,27.611 35.239,27.604 
			35.021,27.597 34.795,27.597 34.562,27.604 34.323,27.619 34.09,27.64 33.858,27.662 33.632,27.691 33.415,27.72 33.204,27.757 
			33.015,27.793 32.84,27.83 32.68,27.873 32.549,27.917 32.448,27.967 32.368,28.011 32.884,26.259 33.043,26.194 33.204,26.136 
			33.378,26.085 33.552,26.049 33.727,26.012 33.916,25.983 34.105,25.954 34.301,25.94 34.504,25.925 34.715,25.918 34.934,25.911 
			35.159,25.911 35.392,25.911 35.631,25.911 35.886,25.918 36.14,25.925 36.344,25.94 36.562,25.976 36.787,26.027 37.02,26.092 
			37.245,26.18 37.463,26.281 37.681,26.405 37.884,26.543 38.066,26.703 38.226,26.877 38.371,27.074 38.48,27.292 38.553,27.524 
			38.597,27.771 38.597,28.047 38.553,28.338 37.819,32.176 37.819,32.176 		"/>
		<polyline fill="none" stroke="#FFFFFF" stroke-width="0.216" stroke-miterlimit="2.6131" points="37.819,32.176 37.528,33.789 
			35.697,33.789 35.697,33.789 35.748,33.491 35.784,33.223 35.813,33.019 35.842,32.91 35.842,32.91 35.74,33.026 35.624,33.143 
			35.486,33.251 35.333,33.354 35.159,33.455 34.977,33.542 34.788,33.629 34.592,33.702 34.381,33.768 34.17,33.818 33.959,33.862 
			33.742,33.891 33.531,33.906 33.32,33.913 33.116,33.891 32.92,33.862 32.92,33.862 32.666,33.797 32.433,33.724 32.229,33.629 
			32.048,33.521 31.888,33.404 31.743,33.273 31.626,33.135 31.524,32.99 31.438,32.837 31.365,32.677 31.307,32.518 31.263,32.358 
			31.234,32.19 31.212,32.023 31.198,31.863 31.198,31.704 31.198,31.704 31.219,31.42 31.263,31.151 31.335,30.896 31.43,30.649 
			31.546,30.417 31.677,30.206 31.83,30.003 32.004,29.821 32.186,29.654 32.39,29.501 32.6,29.363 32.818,29.247 33.051,29.145 
			33.291,29.065 33.538,29 33.792,28.956 33.792,28.956 33.807,28.956 33.843,28.949 33.894,28.941 33.974,28.934 34.061,28.919 
			34.163,28.913 34.272,28.898 34.396,28.883 34.519,28.869 34.643,28.854 34.773,28.847 34.89,28.833 35.006,28.825 35.115,28.818 
			35.217,28.811 35.297,28.811 35.297,28.811 35.464,28.811 35.639,28.818 35.798,28.825 35.958,28.825 36.089,28.833 36.191,28.84 
			36.264,28.847 36.285,28.847 36.285,28.847 36.3,28.796 36.344,28.665 36.38,28.513 36.395,28.375 36.395,28.375 36.365,28.214 
			36.3,28.069 36.213,27.938 36.097,27.83 35.958,27.735 35.806,27.669 35.631,27.626 35.442,27.611 35.442,27.611 35.239,27.604 
			35.021,27.597 34.795,27.597 34.562,27.604 34.323,27.619 34.09,27.64 33.858,27.662 33.632,27.691 33.415,27.72 33.204,27.757 
			33.015,27.793 32.84,27.83 32.68,27.873 32.549,27.917 32.448,27.967 32.368,28.011 32.884,26.259 32.884,26.259 33.043,26.194 
			33.204,26.136 33.378,26.085 33.552,26.049 33.727,26.012 33.916,25.983 34.105,25.954 34.301,25.94 34.504,25.925 34.715,25.918 
			34.934,25.911 35.159,25.911 35.392,25.911 35.631,25.911 35.886,25.918 36.14,25.925 36.14,25.925 36.344,25.94 36.562,25.976 
			36.787,26.027 37.02,26.092 37.245,26.18 37.463,26.281 37.681,26.405 37.884,26.543 38.066,26.703 38.226,26.877 38.371,27.074 
			38.48,27.292 38.553,27.524 38.597,27.771 38.597,28.047 38.553,28.338 37.819,32.176 		"/>
		<polygon fill-rule="evenodd" clip-rule="evenodd" fill="#CB2030" points="36.067,30.279 36.06,30.243 36.031,30.206 
			35.987,30.184 35.915,30.169 35.834,30.155 35.74,30.148 35.631,30.148 35.522,30.148 35.406,30.155 35.282,30.169 35.166,30.184 
			35.05,30.199 34.941,30.213 34.839,30.235 34.752,30.257 34.672,30.279 34.621,30.293 34.562,30.315 34.483,30.344 34.403,30.38 
			34.308,30.424 34.214,30.475 34.112,30.526 34.018,30.584 33.916,30.657 33.821,30.729 33.734,30.817 33.654,30.904 
			33.582,30.999 33.531,31.1 33.487,31.216 33.465,31.333 33.458,31.58 33.494,31.776 33.567,31.921 33.662,32.03 33.771,32.104 
			33.894,32.147 34.01,32.168 34.127,32.176 34.345,32.168 34.541,32.147 34.73,32.118 34.897,32.074 35.042,32.023 35.181,31.958 
			35.304,31.893 35.413,31.812 35.508,31.74 35.595,31.653 35.667,31.573 35.726,31.485 35.777,31.398 35.82,31.311 35.856,31.231 
			35.878,31.151 35.937,30.94 35.987,30.7 36.031,30.468 36.067,30.279 36.067,30.279 		"/>
		<polygon fill-rule="evenodd" clip-rule="evenodd" fill="#FFFFFF" points="22.526,33.789 20.549,33.789 22.199,24.246 
			25.637,24.246 25.964,29.908 28.341,24.246 31.932,24.246 30.245,33.789 28.268,33.789 29.519,26.659 29.438,26.659 26.48,33.789 
			24.249,33.789 24.234,33.491 24.184,32.699 24.118,31.573 24.045,30.279 23.973,28.978 23.907,27.837 23.856,27.008 
			23.842,26.659 23.82,26.659 23.776,26.659 23.733,26.659 23.733,26.659 22.526,33.789 22.526,33.789 		"/>
		<polyline fill="none" stroke="#FFFFFF" stroke-width="0.216" stroke-miterlimit="2.6131" points="22.526,33.789 20.549,33.789 
			22.199,24.246 25.637,24.246 25.964,29.908 28.341,24.246 31.932,24.246 30.245,33.789 28.268,33.789 29.519,26.659 
			29.438,26.659 26.48,33.789 24.249,33.789 24.249,33.789 24.234,33.491 24.184,32.699 24.118,31.573 24.045,30.279 23.973,28.978 
			23.907,27.837 23.856,27.008 23.842,26.659 23.842,26.659 23.82,26.659 23.776,26.659 23.733,26.659 23.733,26.659 22.526,33.789 
					"/>
		<polygon fill-rule="evenodd" clip-rule="evenodd" fill="#FFFFFF" points="73.892,32.176 73.594,33.789 71.77,33.789 
			71.784,33.491 71.792,33.229 71.792,33.034 71.806,32.946 71.711,33.055 71.603,33.164 71.472,33.266 71.326,33.368 
			71.173,33.462 70.999,33.549 70.817,33.637 70.636,33.709 70.439,33.768 70.236,33.826 70.032,33.862 69.829,33.891 
			69.618,33.906 69.414,33.913 69.218,33.891 69.022,33.862 68.76,33.797 68.528,33.724 68.324,33.629 68.135,33.521 67.975,33.404 
			67.837,33.273 67.721,33.135 67.619,32.99 67.532,32.837 67.467,32.677 67.408,32.518 67.372,32.358 67.343,32.19 67.321,32.023 
			67.307,31.863 67.307,31.704 67.321,31.42 67.365,31.151 67.43,30.896 67.524,30.649 67.634,30.417 67.772,30.206 67.924,30.003 
			68.092,29.821 68.281,29.654 68.477,29.501 68.688,29.363 68.913,29.247 69.138,29.145 69.378,29.065 69.618,29 69.865,28.956 
			69.879,28.956 69.916,28.949 69.967,28.941 70.04,28.934 70.134,28.919 70.236,28.913 70.345,28.898 70.461,28.883 70.584,28.869 
			70.715,28.854 70.839,28.847 70.963,28.833 71.079,28.825 71.181,28.818 71.283,28.811 71.362,28.811 71.537,28.811 
			71.711,28.818 71.878,28.825 72.038,28.825 72.177,28.833 72.293,28.84 72.358,28.847 72.387,28.847 72.402,28.796 72.423,28.665 
			72.445,28.513 72.46,28.375 72.431,28.214 72.373,28.069 72.278,27.938 72.169,27.83 72.038,27.735 71.886,27.669 71.726,27.626 
			71.551,27.611 71.348,27.604 71.13,27.597 70.904,27.597 70.672,27.604 70.432,27.619 70.199,27.64 69.967,27.662 69.742,27.691 
			69.523,27.72 69.313,27.757 69.124,27.793 68.949,27.83 68.789,27.873 68.659,27.917 68.557,27.967 68.477,28.011 68.986,26.259 
			69.146,26.194 69.313,26.136 69.479,26.085 69.654,26.049 69.836,26.012 70.018,25.983 70.207,25.954 70.403,25.94 70.606,25.925 
			70.817,25.918 71.028,25.911 71.253,25.911 71.479,25.911 71.711,25.911 71.958,25.918 72.206,25.925 72.409,25.94 72.627,25.976 
			72.853,26.027 73.085,26.092 73.311,26.18 73.536,26.281 73.753,26.405 73.957,26.543 74.139,26.703 74.306,26.877 74.452,27.074 
			74.561,27.292 74.641,27.524 74.691,27.771 74.691,28.047 74.655,28.338 73.892,32.176 73.892,32.176 		"/>
		<polygon fill-rule="evenodd" clip-rule="evenodd" fill="#FFFFFF" points="73.594,33.84 73.637,33.797 73.936,32.184 
			73.848,32.168 73.55,33.782 73.594,33.739 73.594,33.84 73.63,33.833 73.637,33.797 73.594,33.84 73.594,33.84 		"/>
		<polygon fill-rule="evenodd" clip-rule="evenodd" fill="#FFFFFF" points="71.726,33.789 71.77,33.84 73.594,33.84 73.594,33.739 
			71.77,33.739 71.813,33.789 71.726,33.789 71.718,33.84 71.77,33.84 71.726,33.789 71.726,33.789 		"/>
		<polygon fill-rule="evenodd" clip-rule="evenodd" fill="#FFFFFF" points="71.842,32.975 71.777,32.917 71.748,33.034 
			71.74,33.229 71.74,33.491 71.726,33.789 71.813,33.789 71.828,33.491 71.842,33.229 71.834,33.034 71.834,32.975 71.77,32.917 
			71.842,32.975 71.842,32.975 		"/>
		<polygon fill-rule="evenodd" clip-rule="evenodd" fill="#FFFFFF" points="69.015,33.906 69.015,33.906 69.218,33.935 
			69.414,33.957 69.618,33.949 69.829,33.935 70.04,33.906 70.243,33.869 70.447,33.811 70.65,33.753 70.832,33.68 71.021,33.593 
			71.195,33.506 71.348,33.404 71.5,33.303 71.631,33.201 71.748,33.084 71.842,32.975 71.77,32.917 71.675,33.026 71.573,33.128 
			71.442,33.229 71.304,33.332 71.152,33.419 70.977,33.506 70.803,33.593 70.621,33.666 70.432,33.724 70.229,33.782 
			70.025,33.818 69.829,33.848 69.618,33.862 69.414,33.869 69.218,33.848 69.029,33.818 69.029,33.818 69.015,33.906 
			69.015,33.906 		"/>
		<polygon fill-rule="evenodd" clip-rule="evenodd" fill="#FFFFFF" points="67.256,31.704 67.256,31.704 67.263,31.863 
			67.278,32.023 67.299,32.198 67.329,32.365 67.365,32.524 67.423,32.692 67.488,32.859 67.583,33.012 67.685,33.164 
			67.801,33.303 67.946,33.44 68.113,33.557 68.303,33.673 68.513,33.768 68.753,33.84 69.015,33.906 69.029,33.818 68.768,33.753 
			68.542,33.68 68.346,33.586 68.157,33.484 68.004,33.368 67.874,33.244 67.757,33.106 67.655,32.968 67.576,32.815 67.51,32.663 
			67.452,32.51 67.416,32.35 67.387,32.184 67.365,32.023 67.35,31.863 67.357,31.704 67.357,31.704 67.256,31.704 67.256,31.704 		
			"/>
		<polygon fill-rule="evenodd" clip-rule="evenodd" fill="#FFFFFF" points="69.865,28.913 69.865,28.913 69.611,28.956 
			69.363,29.021 69.124,29.101 68.891,29.203 68.666,29.319 68.448,29.465 68.251,29.618 68.062,29.792 67.888,29.974 
			67.735,30.177 67.59,30.395 67.481,30.635 67.387,30.882 67.321,31.144 67.278,31.42 67.256,31.704 67.357,31.704 67.365,31.42 
			67.408,31.158 67.474,30.911 67.568,30.664 67.677,30.439 67.808,30.235 67.96,30.032 68.121,29.85 68.31,29.69 68.506,29.538 
			68.709,29.407 68.935,29.29 69.153,29.189 69.393,29.109 69.625,29.043 69.865,29 69.865,29 69.865,28.913 69.865,28.913 		"/>
		<polygon fill-rule="evenodd" clip-rule="evenodd" fill="#FFFFFF" points="71.362,28.76 71.362,28.76 71.283,28.76 71.181,28.774 
			71.079,28.782 70.963,28.789 70.839,28.803 70.715,28.811 70.584,28.825 70.461,28.84 70.345,28.854 70.236,28.869 70.134,28.876 
			70.04,28.891 69.967,28.898 69.909,28.905 69.879,28.913 69.865,28.913 69.865,29 69.879,29 69.923,28.992 69.967,28.985 
			70.04,28.978 70.134,28.963 70.236,28.956 70.345,28.941 70.461,28.927 70.584,28.913 70.715,28.898 70.839,28.891 70.963,28.876 
			71.079,28.869 71.181,28.861 71.283,28.861 71.362,28.861 71.362,28.861 71.362,28.76 71.362,28.76 		"/>
		<polygon fill-rule="evenodd" clip-rule="evenodd" fill="#FFFFFF" points="72.343,28.84 72.387,28.803 72.358,28.803 
			72.293,28.796 72.177,28.789 72.038,28.774 71.878,28.774 71.711,28.774 71.537,28.76 71.362,28.76 71.362,28.861 71.537,28.861 
			71.711,28.861 71.878,28.876 72.038,28.876 72.177,28.876 72.293,28.883 72.358,28.891 72.387,28.891 72.431,28.854 
			72.387,28.891 72.423,28.898 72.431,28.854 72.343,28.84 72.343,28.84 		"/>
		<polygon fill-rule="evenodd" clip-rule="evenodd" fill="#FFFFFF" points="72.417,28.375 72.409,28.375 72.402,28.513 
			72.38,28.658 72.358,28.789 72.343,28.84 72.431,28.854 72.445,28.803 72.467,28.672 72.489,28.513 72.511,28.375 72.503,28.375 
			72.417,28.375 72.417,28.375 		"/>
		<polygon fill-rule="evenodd" clip-rule="evenodd" fill="#FFFFFF" points="71.551,27.655 71.551,27.662 71.718,27.669 
			71.871,27.713 72.017,27.778 72.14,27.866 72.242,27.967 72.329,28.091 72.387,28.222 72.417,28.375 72.503,28.375 72.474,28.208 
			72.417,28.047 72.314,27.909 72.198,27.793 72.06,27.691 71.9,27.626 71.733,27.582 71.551,27.561 71.551,27.568 71.551,27.655 
			71.551,27.655 		"/>
		<polygon fill-rule="evenodd" clip-rule="evenodd" fill="#FFFFFF" points="68.433,28.004 68.506,28.047 68.579,28.011 
			68.673,27.96 68.797,27.917 68.957,27.873 69.131,27.837 69.32,27.8 69.531,27.764 69.742,27.735 69.967,27.706 70.199,27.684 
			70.432,27.662 70.672,27.647 70.904,27.647 71.13,27.647 71.348,27.647 71.551,27.655 71.551,27.568 71.348,27.561 71.13,27.546 
			70.904,27.546 70.672,27.561 70.432,27.575 70.199,27.597 69.967,27.619 69.742,27.647 69.516,27.677 69.305,27.713 69.117,27.75 
			68.942,27.786 68.782,27.83 68.644,27.873 68.535,27.924 68.448,27.975 68.521,28.019 68.433,28.004 68.433,28.004 		"/>
		<polygon fill-rule="evenodd" clip-rule="evenodd" fill="#FFFFFF" points="68.971,26.216 68.942,26.252 68.433,28.004 
			68.521,28.019 69.029,26.267 69,26.303 68.971,26.216 68.949,26.223 68.942,26.252 68.971,26.216 68.971,26.216 		"/>
		<polygon fill-rule="evenodd" clip-rule="evenodd" fill="#FFFFFF" points="72.206,25.881 72.206,25.881 71.958,25.867 
			71.711,25.86 71.479,25.86 71.253,25.86 71.028,25.86 70.817,25.875 70.606,25.881 70.403,25.896 70.207,25.911 70.01,25.94 
			69.829,25.969 69.647,26.005 69.473,26.042 69.298,26.092 69.131,26.15 68.971,26.216 69,26.303 69.16,26.238 69.327,26.18 
			69.487,26.128 69.662,26.092 69.843,26.056 70.025,26.027 70.207,25.998 70.403,25.983 70.606,25.969 70.817,25.961 
			71.028,25.961 71.253,25.961 71.479,25.961 71.711,25.961 71.958,25.969 72.206,25.969 72.206,25.969 72.206,25.881 
			72.206,25.881 		"/>
		<polygon fill-rule="evenodd" clip-rule="evenodd" fill="#FFFFFF" points="74.698,28.345 74.698,28.345 74.735,28.047 
			74.735,27.771 74.684,27.517 74.604,27.277 74.488,27.052 74.342,26.848 74.168,26.667 73.986,26.507 73.775,26.369 
			73.558,26.238 73.325,26.136 73.1,26.049 72.86,25.983 72.634,25.933 72.409,25.896 72.206,25.881 72.206,25.969 72.409,25.983 
			72.62,26.02 72.845,26.07 73.07,26.136 73.296,26.223 73.514,26.325 73.732,26.441 73.928,26.58 74.11,26.739 74.27,26.906 
			74.415,27.095 74.517,27.306 74.597,27.531 74.647,27.771 74.647,28.047 74.611,28.331 74.611,28.331 74.698,28.345 
			74.698,28.345 		"/>
		<polygon fill-rule="evenodd" clip-rule="evenodd" fill="#FFFFFF" points="73.936,32.184 73.936,32.184 74.698,28.345 
			74.611,28.331 73.848,32.168 73.848,32.168 73.936,32.184 73.936,32.184 		"/>
		<polygon fill-rule="evenodd" clip-rule="evenodd" fill="#E9B140" points="72.133,30.279 72.118,30.235 72.089,30.199 
			72.038,30.177 71.966,30.155 71.886,30.148 71.792,30.141 71.682,30.141 71.573,30.148 71.457,30.163 71.341,30.177 
			71.224,30.191 71.115,30.206 71.006,30.228 70.912,30.243 70.817,30.264 70.745,30.279 70.693,30.286 70.636,30.308 70.563,30.33 
			70.483,30.359 70.388,30.402 70.301,30.446 70.199,30.497 70.105,30.562 70.01,30.628 69.916,30.708 69.836,30.788 69.756,30.882 
			69.691,30.984 69.64,31.093 69.596,31.209 69.574,31.333 69.567,31.58 69.604,31.776 69.662,31.921 69.749,32.03 69.858,32.104 
			69.981,32.147 70.105,32.168 70.229,32.176 70.447,32.168 70.65,32.147 70.839,32.11 71.006,32.06 71.167,32.001 71.304,31.936 
			71.435,31.863 71.551,31.776 71.653,31.696 71.74,31.602 71.82,31.514 71.886,31.42 71.937,31.333 71.973,31.246 72.002,31.158 
			72.023,31.079 72.053,30.875 72.089,30.664 72.118,30.46 72.133,30.279 72.133,30.279 		"/>
		<polygon fill-rule="evenodd" clip-rule="evenodd" fill="#FFFFFF" points="74.437,33.789 76.487,33.789 76.487,33.789 
			77.221,29.654 77.25,29.494 77.293,29.334 77.337,29.174 77.395,29.014 77.468,28.854 77.555,28.702 77.649,28.556 77.766,28.418 
			77.896,28.294 78.042,28.178 78.209,28.069 78.398,27.982 78.609,27.909 78.841,27.852 79.096,27.808 79.379,27.793 
			79.481,27.793 79.539,27.793 79.561,27.793 79.561,27.793 79.888,25.925 79.685,25.94 79.488,25.961 79.307,25.998 79.132,26.049 
			78.972,26.107 78.82,26.18 78.674,26.259 78.536,26.347 78.406,26.449 78.282,26.55 78.166,26.667 78.049,26.783 77.94,26.906 
			77.832,27.044 77.722,27.175 77.621,27.321 77.838,26.005 75.796,26.005 74.437,33.789 74.437,33.789 74.437,33.789 		"/>
		<polyline fill="none" stroke="#FFFFFF" stroke-width="0.216" stroke-miterlimit="2.6131" points="74.437,33.789 76.487,33.789 
			76.487,33.789 77.221,29.654 77.221,29.654 77.25,29.494 77.293,29.334 77.337,29.174 77.395,29.014 77.468,28.854 77.555,28.702 
			77.649,28.556 77.766,28.418 77.896,28.294 78.042,28.178 78.209,28.069 78.398,27.982 78.609,27.909 78.841,27.852 
			79.096,27.808 79.379,27.793 79.379,27.793 79.481,27.793 79.539,27.793 79.561,27.793 79.561,27.793 79.888,25.925 
			79.888,25.925 79.685,25.94 79.488,25.961 79.307,25.998 79.132,26.049 78.972,26.107 78.82,26.18 78.674,26.259 78.536,26.347 
			78.406,26.449 78.282,26.55 78.166,26.667 78.049,26.783 77.94,26.906 77.832,27.044 77.722,27.175 77.621,27.321 77.838,26.005 
			75.796,26.005 74.437,33.789 74.437,33.789 		"/>
		<polygon fill-rule="evenodd" clip-rule="evenodd" fill="#FFFFFF" points="55.19,33.789 57.24,33.789 57.276,33.789 57.974,29.654 
			58.003,29.494 58.04,29.341 58.076,29.189 58.126,29.043 58.185,28.898 58.257,28.76 58.345,28.629 58.446,28.505 58.563,28.396 
			58.694,28.288 58.854,28.2 59.028,28.12 59.231,28.055 59.457,27.997 59.704,27.96 59.987,27.938 60.009,27.938 60.039,27.946 
			60.075,27.953 60.111,27.953 60.147,27.96 60.176,27.967 60.198,27.975 60.205,27.975 60.213,27.946 60.235,27.858 60.264,27.728 
			60.3,27.568 60.351,27.379 60.402,27.175 60.467,26.972 60.533,26.768 60.59,26.63 60.664,26.492 60.736,26.354 60.809,26.23 
			60.875,26.122 60.925,26.034 60.961,25.983 60.976,25.961 60.969,25.961 60.939,25.954 60.903,25.947 60.853,25.94 60.801,25.94 
			60.743,25.933 60.692,25.925 60.642,25.925 60.416,25.94 60.213,25.961 60.024,25.998 59.85,26.042 59.682,26.1 59.53,26.172 
			59.391,26.245 59.26,26.332 59.137,26.427 59.021,26.536 58.912,26.645 58.803,26.768 58.694,26.892 58.592,27.03 58.483,27.175 
			58.374,27.321 58.635,26.005 56.55,26.005 55.19,33.789 55.19,33.789 55.19,33.789 		"/>
		<polyline fill="none" stroke="#FFFFFF" stroke-width="0.216" stroke-miterlimit="2.6131" points="55.19,33.789 57.24,33.789 
			57.276,33.789 57.974,29.654 57.974,29.654 58.003,29.494 58.04,29.341 58.076,29.189 58.126,29.043 58.185,28.898 58.257,28.76 
			58.345,28.629 58.446,28.505 58.563,28.396 58.694,28.288 58.854,28.2 59.028,28.12 59.231,28.055 59.457,27.997 59.704,27.96 
			59.987,27.938 59.987,27.938 60.009,27.938 60.039,27.946 60.075,27.953 60.111,27.953 60.147,27.96 60.176,27.967 60.198,27.975 
			60.205,27.975 60.205,27.975 60.213,27.946 60.235,27.858 60.264,27.728 60.3,27.568 60.351,27.379 60.402,27.175 60.467,26.972 
			60.533,26.768 60.533,26.768 60.59,26.63 60.664,26.492 60.736,26.354 60.809,26.23 60.875,26.122 60.925,26.034 60.961,25.983 
			60.976,25.961 60.976,25.961 60.969,25.961 60.939,25.954 60.903,25.947 60.853,25.94 60.801,25.94 60.743,25.933 60.692,25.925 
			60.642,25.925 60.642,25.925 60.416,25.94 60.213,25.961 60.024,25.998 59.85,26.042 59.682,26.1 59.53,26.172 59.391,26.245 
			59.26,26.332 59.137,26.427 59.021,26.536 58.912,26.645 58.803,26.768 58.694,26.892 58.592,27.03 58.483,27.175 58.374,27.321 
			58.635,26.005 56.55,26.005 55.19,33.789 55.19,33.789 		"/>
	</g>
</g>
</svg>
