<?xml version="1.0" encoding="utf-8"?>
<!-- Generator: Adobe Illustrator 16.0.0, SVG Export Plug-In . SVG Version: 6.00 Build 0)  -->
<!DOCTYPE svg PUBLIC "-//W3C//DTD SVG 1.1//EN" "http://www.w3.org/Graphics/SVG/1.1/DTD/svg11.dtd">
<svg version="1.1" id="Layer_1" xmlns="http://www.w3.org/2000/svg" xmlns:xlink="http://www.w3.org/1999/xlink" x="0px" y="0px"
	 width="230px" height="61px" viewBox="0 0 230 61" enable-background="new 0 0 230 61" xml:space="preserve">
<g>
	<g>
		<g>
			<g>
				<path fill="#8DC63F" d="M16.256,33.383c-6.593,0-11.847,1.449-16.256,4.521v9.254h20.534c6.426,0,11.601-2.868,13.693-8.233
					c-4.91-3.722-10.792-5.541-17.922-5.541C16.289,33.383,16.272,33.383,16.256,33.383z"/>
				<path fill="#C1D82F" d="M16.305,30.163c7.346,0,13.516,1.772,18.767,5.395c0.098-0.741,0.164-1.501,0.164-2.308
					c0-6.627-3.909-9.076-5.827-10.268c1.457-0.993,5.166-3.974,5.166-9.339c0-0.959-0.079-1.879-0.223-2.76
					c-6.164,4.256-12.249,4.881-18.01,5.101h-0.052h-0.052C11.044,15.844,5.562,15.179,0,11.958v22.147
					c4.566-2.642,9.935-3.942,16.256-3.942C16.272,30.163,16.289,30.163,16.305,30.163z"/>
				<path fill="#8DC63F" d="M33.389,7.601C31.34,2.903,26.652,0,19.538,0H0v8.157c5.139,3.519,10.312,4.438,16.272,4.605
					C21.785,12.551,27.608,11.93,33.389,7.601z"/>
			</g>
			<g>
				<path fill="#002B54" d="M64.866,40.141H51.468V7.02h12.888c6.141,0,10,3.49,10,9.071c0,3.584-2.233,6.141-4.468,7.024
					c2.56,1.021,4.982,3.489,4.982,7.673C74.87,36.883,70.729,40.141,64.866,40.141z M63.937,11.53h-7.444v9.49h7.444
					c3.208,0,5.396-1.673,5.396-4.743S67.145,11.53,63.937,11.53z M64.401,25.534h-7.909v10.092h7.909
					c3.486,0,5.444-2.138,5.444-5.067S67.888,25.534,64.401,25.534z"/>
				<path fill="#002B54" d="M100.592,36.883c-2.278,2.282-5.208,3.536-8.743,3.536c-3.536,0-6.419-1.254-8.701-3.536
					c-3.254-3.253-3.211-6.93-3.211-13.303s-0.042-10.046,3.211-13.303c2.281-2.282,5.165-3.539,8.701-3.539
					c3.535,0,6.465,1.257,8.743,3.539c3.259,3.257,3.166,6.93,3.166,13.303S103.851,33.63,100.592,36.883z M96.775,13.298
					c-1.159-1.253-2.976-2.046-4.926-2.046c-1.955,0-3.768,0.793-4.93,2.046c-1.63,1.769-1.954,3.631-1.954,10.282
					s0.324,8.511,1.954,10.278c1.162,1.257,2.976,2.05,4.93,2.05c1.951,0,3.768-0.793,4.926-2.05
					c1.632-1.768,1.958-3.627,1.958-10.278S98.407,15.066,96.775,13.298z"/>
				<path fill="#002B54" d="M121.385,40.419c-6.743,0-11.859-4.606-11.859-11.444V7.02h5.025v21.723
					c0,4.423,2.697,7.166,6.834,7.166c4.141,0,6.888-2.743,6.888-7.166V7.02h5.024v21.955
					C133.297,35.812,128.131,40.419,121.385,40.419z"/>
				<path fill="#002B54" d="M160.604,40.141l-15.303-23.304v23.304h-5.028V7.02h4.606l15.307,23.258V7.02h5.021v33.121H160.604z"/>
				<path fill="#002B54" d="M183.396,40.419c-3.44,0-6.419-1.254-8.697-3.536c-3.257-3.253-3.211-6.93-3.211-13.303
					s-0.045-10.046,3.211-13.303c2.278-2.282,5.257-3.539,8.697-3.539c4.141,0,6.792,1.489,9.257,3.908l-3.349,3.398
					c-1.722-1.723-3.162-2.793-5.909-2.793c-1.954,0-3.722,0.747-4.884,2c-1.627,1.771-1.954,3.677-1.954,10.328
					s0.327,8.557,1.954,10.328c1.162,1.253,2.93,2,4.884,2c2.747,0,4.187-1.07,5.909-2.793l3.349,3.395
					C190.189,38.933,187.538,40.419,183.396,40.419z"/>
				<path fill="#002B54" d="M198.235,40.141V7.02h21.166v4.511H203.26v9.677h13.768v4.468H203.26v9.951h16.141v4.515H198.235z"/>
			</g>
		</g>
		<g>
			<g>
				<path fill="#002B54" d="M126.272,48.06v9.212h-1.618V48.06h-2.936v-1.452h7.489v1.452H126.272z"/>
				<path fill="#002B54" d="M130.572,53.917c0,1.303,0.689,2.127,1.932,2.127c0.854,0,1.303-0.239,1.842-0.778l0.973,0.913
					c-0.778,0.778-1.512,1.183-2.846,1.183c-1.902,0-3.415-1.003-3.415-3.895c0-2.455,1.273-3.879,3.22-3.879
					c2.037,0,3.22,1.498,3.22,3.655v0.674H130.572z M133.777,51.82c-0.24-0.57-0.779-0.959-1.498-0.959
					c-0.718,0-1.273,0.389-1.513,0.959c-0.149,0.344-0.179,0.569-0.194,1.032h3.415C133.972,52.39,133.927,52.164,133.777,51.82z"/>
				<path fill="#002B54" d="M141.776,57.271v-4.628c0-1.183-0.674-1.692-1.528-1.692s-1.573,0.524-1.573,1.692v4.628h-1.528v-7.594
					h1.498v0.764c0.524-0.569,1.258-0.854,2.022-0.854c0.778,0,1.422,0.255,1.872,0.689c0.584,0.568,0.764,1.288,0.764,2.142v4.853
					H141.776z"/>
				<path fill="#002B54" d="M149.91,57.271v-4.628c0-1.183-0.674-1.692-1.528-1.692c-0.853,0-1.573,0.524-1.573,1.692v4.628h-1.527
					v-7.594h1.498v0.764c0.524-0.569,1.258-0.854,2.022-0.854c0.779,0,1.423,0.255,1.872,0.689c0.584,0.568,0.764,1.288,0.764,2.142
					v4.853H149.91z"/>
				<path fill="#002B54" d="M153.371,48.181v-1.618h1.618v1.618H153.371z M153.416,57.271v-7.594h1.528v7.594H153.416z"/>
				<path fill="#002B54" d="M159.453,57.361c-1.244,0-2.292-0.21-3.191-1.093l1.004-1.003c0.613,0.628,1.438,0.793,2.187,0.793
					c0.928,0,1.662-0.329,1.662-1.049c0-0.509-0.284-0.839-1.019-0.897l-1.213-0.105c-1.423-0.12-2.247-0.764-2.247-2.097
					c0-1.483,1.273-2.322,2.861-2.322c1.138,0,2.111,0.24,2.816,0.854l-0.959,0.975c-0.48-0.404-1.153-0.555-1.872-0.555
					c-0.914,0-1.378,0.404-1.378,0.975c0,0.448,0.239,0.793,1.049,0.868l1.198,0.104c1.423,0.12,2.262,0.794,2.262,2.143
					C162.613,56.538,161.266,57.361,159.453,57.361z"/>
				<path fill="#002B54" d="M167.497,57.271V46.607h1.617v9.212h5.138v1.452H167.497z"/>
				<path fill="#002B54" d="M175.496,48.181v-1.618h1.618v1.618H175.496z M175.541,57.271v-7.594h1.528v7.594H175.541z"/>
				<path fill="#002B54" d="M180.888,50.981v6.29h-1.528v-6.29h-0.868v-1.169h0.868v-1.168c0-1.093,0.659-2.112,2.082-2.112h0.959
					v1.304h-0.674c-0.569,0-0.839,0.329-0.839,0.883v1.094h1.513v1.169H180.888z"/>
				<path fill="#002B54" d="M184.529,53.917c0,1.303,0.689,2.127,1.932,2.127c0.854,0,1.304-0.239,1.843-0.778l0.973,0.913
					c-0.778,0.778-1.512,1.183-2.846,1.183c-1.902,0-3.416-1.003-3.416-3.895c0-2.455,1.273-3.879,3.221-3.879
					c2.038,0,3.22,1.498,3.22,3.655v0.674H184.529z M187.733,51.82c-0.239-0.57-0.778-0.959-1.498-0.959
					c-0.719,0-1.273,0.389-1.513,0.959c-0.149,0.344-0.18,0.569-0.194,1.032h3.415C187.928,52.39,187.884,52.164,187.733,51.82z"/>
				<path fill="#002B54" d="M193.562,57.361c-1.244,0-2.292-0.21-3.19-1.093l1.003-1.003c0.614,0.628,1.438,0.793,2.187,0.793
					c0.928,0,1.662-0.329,1.662-1.049c0-0.509-0.284-0.839-1.018-0.897l-1.214-0.105c-1.423-0.12-2.247-0.764-2.247-2.097
					c0-1.483,1.274-2.322,2.861-2.322c1.139,0,2.112,0.24,2.816,0.854l-0.958,0.975c-0.479-0.404-1.153-0.555-1.873-0.555
					c-0.913,0-1.378,0.404-1.378,0.975c0,0.448,0.24,0.793,1.048,0.868l1.198,0.104c1.423,0.12,2.262,0.794,2.262,2.143
					C196.722,56.538,195.374,57.361,193.562,57.361z"/>
				<path fill="#002B54" d="M200.317,57.271c-1.423,0-2.082-1.018-2.082-2.112v-4.178h-0.869v-1.169h0.869v-2.307h1.528v2.307h1.468
					v1.169h-1.468v4.104c0,0.554,0.27,0.883,0.839,0.883h0.629v1.304H200.317z"/>
				<path fill="#002B54" d="M205.186,58.785c-0.15,0.419-0.33,0.719-0.555,0.943c-0.419,0.42-0.973,0.554-1.558,0.554h-0.614v-1.378
					h0.39c0.644,0,0.869-0.194,1.093-0.81l0.419-1.183l-2.651-7.234h1.618l1.812,5.348l1.768-5.348h1.633L205.186,58.785z"/>
				<path fill="#002B54" d="M211.477,57.271c-1.453,0-2.082-0.973-2.082-2.097v-8.567h1.528v8.478c0,0.585,0.209,0.883,0.824,0.883
					h0.674v1.304H211.477z"/>
				<path fill="#002B54" d="M214.473,53.917c0,1.303,0.689,2.127,1.932,2.127c0.854,0,1.303-0.239,1.843-0.778l0.974,0.913
					c-0.779,0.778-1.513,1.183-2.846,1.183c-1.902,0-3.416-1.003-3.416-3.895c0-2.455,1.273-3.879,3.221-3.879
					c2.037,0,3.22,1.498,3.22,3.655v0.674H214.473z M217.678,51.82c-0.239-0.57-0.779-0.959-1.498-0.959s-1.273,0.389-1.513,0.959
					c-0.149,0.344-0.179,0.569-0.194,1.032h3.415C217.873,52.39,217.829,52.164,217.678,51.82z"/>
			</g>
		</g>
	</g>
	<g>
		<path fill="#002B54" d="M226.966,12.147c-1.676,0-3.034-1.357-3.034-3.034c0-1.676,1.358-3.034,3.034-3.034S230,7.438,230,9.113
			C230,10.79,228.642,12.147,226.966,12.147z M226.966,6.439c-1.45,0-2.64,1.224-2.64,2.674s1.19,2.674,2.64,2.674
			c1.45,0,2.64-1.224,2.64-2.674S228.416,6.439,226.966,6.439z M227.771,10.79l-0.83-1.399h-0.553v1.399h-0.377V7.429h1.073
			c0.553,0,1.039,0.419,1.039,0.989c0,0.494-0.318,0.812-0.763,0.938l0.847,1.434H227.771z M227.041,7.772h-0.654v1.282h0.654
			c0.402,0,0.705-0.268,0.705-0.637S227.443,7.772,227.041,7.772z"/>
	</g>
</g>
</svg>
