<?xml version="1.0" encoding="utf-8"?>
<!-- Generator: Adobe Illustrator 16.0.0, SVG Export Plug-In . SVG Version: 6.00 Build 0)  -->
<!DOCTYPE svg PUBLIC "-//W3C//DTD SVG 1.1//EN" "http://www.w3.org/Graphics/SVG/1.1/DTD/svg11.dtd">
<svg version="1.1" xmlns="http://www.w3.org/2000/svg" xmlns:xlink="http://www.w3.org/1999/xlink" x="0px" y="0px" width="20px"
	 height="20px" viewBox="0 0 20 20" enable-background="new 0 0 20 20" xml:space="preserve">
<g id="desktop">
	<g>
		<g>
			<circle id="XMLID_9_" fill="#DC4E41" cx="10" cy="10" r="10"/>
		</g>
		<g>
			<path fill="#777777" d="M3.482,10.448c-0.035,1.721,1.148,3.362,2.779,3.897c1.535,0.517,3.424,0.131,4.445-1.185
				c0.746-0.921,0.916-2.149,0.834-3.298c-1.314-0.012-2.629-0.008-3.943-0.006c-0.002,0.469,0,0.936,0.002,1.404
				c0.789,0.021,1.576,0.012,2.363,0.027c-0.199,0.682-0.652,1.314-1.338,1.561c-1.328,0.585-3.021-0.179-3.438-1.57
				C4.684,9.946,5.508,8.338,6.869,7.95c0.846-0.298,1.715,0.037,2.438,0.477c0.367-0.343,0.709-0.709,1.047-1.079
				C9.531,6.66,8.477,6.239,7.393,6.332C5.264,6.357,3.4,8.322,3.482,10.448z"/>
			<path fill="#777777" d="M14.102,8.676c-0.004,0.393-0.008,0.786-0.01,1.178c-0.395,0.004-0.787,0.006-1.178,0.008
				c0,0.392,0,0.781,0,1.174c0.391,0.002,0.785,0.004,1.178,0.008c0.004,0.392,0.004,0.783,0.008,1.177c0.389,0,0.781-0.002,1.172,0
				c0.002-0.394,0.004-0.785,0.008-1.179c0.393-0.002,0.787-0.004,1.178-0.006c0-0.393,0-0.781,0-1.174
				c-0.391-0.002-0.785-0.004-1.178-0.008c-0.002-0.392-0.006-0.785-0.008-1.177C14.881,8.676,14.49,8.676,14.102,8.676z"/>
			<g>
				<path fill="#FFFFFF" d="M3.482,10.448C3.4,8.322,5.264,6.357,7.393,6.332c1.084-0.093,2.139,0.328,2.959,1.016
					c-0.336,0.37-0.678,0.736-1.045,1.078C8.584,7.987,7.715,7.652,6.869,7.95c-1.361,0.388-2.188,1.996-1.682,3.329
					c0.416,1.392,2.109,2.155,3.436,1.57c0.688-0.246,1.141-0.88,1.34-1.561c-0.787-0.016-1.574-0.006-2.363-0.027
					c-0.002-0.469-0.004-0.936-0.002-1.404c1.314-0.002,2.629-0.006,3.943,0.006c0.082,1.148-0.088,2.377-0.834,3.298
					c-1.021,1.314-2.91,1.7-4.445,1.185C4.631,13.811,3.447,12.169,3.482,10.448z"/>
				<path fill="#FFFFFF" d="M14.102,8.676c0.389,0,0.779,0,1.17,0c0.002,0.393,0.006,0.786,0.008,1.178
					c0.393,0.004,0.787,0.006,1.178,0.008c0,0.392,0,0.781,0,1.174c-0.391,0.002-0.785,0.004-1.178,0.006
					c-0.004,0.394-0.006,0.785-0.008,1.179c-0.391-0.002-0.783,0-1.172,0c-0.004-0.394-0.004-0.785-0.008-1.177
					c-0.393-0.005-0.787-0.006-1.178-0.009c0-0.392,0-0.781,0-1.173c0.391-0.002,0.783-0.004,1.178-0.008
					C14.094,9.462,14.098,9.068,14.102,8.676z"/>
			</g>
		</g>
	</g>
</g>
<g id="movil">
</g>
</svg>
