<?xml version="1.0" encoding="utf-8"?>
<!-- Generator: Adobe Illustrator 16.0.0, SVG Export Plug-In . SVG Version: 6.00 Build 0)  -->
<!DOCTYPE svg PUBLIC "-//W3C//DTD SVG 1.1//EN" "http://www.w3.org/Graphics/SVG/1.1/DTD/svg11.dtd">
<svg version="1.1" xmlns="http://www.w3.org/2000/svg" xmlns:xlink="http://www.w3.org/1999/xlink" x="0px" y="0px" width="20px"
	 height="20px" viewBox="0 0 20 20" enable-background="new 0 0 20 20" xml:space="preserve">
<g id="desktop">
	<g>
		<path fill="#FFFFFF" d="M12.98,5.321H7.02c-0.951,0-1.725,0.773-1.725,1.726v5.961c0,0.951,0.773,1.726,1.725,1.726h5.961
			c0.951,0,1.727-0.774,1.727-1.726V7.047C14.707,6.095,13.932,5.321,12.98,5.321z M10,13.125c-1.709,0-3.098-1.39-3.098-3.098
			c0-1.709,1.389-3.099,3.098-3.099s3.1,1.39,3.1,3.099C13.1,11.735,11.709,13.125,10,13.125z M13.199,7.569
			c-0.404,0-0.734-0.329-0.734-0.733s0.33-0.732,0.734-0.732s0.732,0.328,0.732,0.732S13.604,7.569,13.199,7.569z"/>
		<path fill="#FFFFFF" d="M10,8.238c-0.986,0-1.789,0.803-1.789,1.789S9.014,11.816,10,11.816s1.789-0.803,1.789-1.789
			S10.986,8.238,10,8.238z"/>
		<path fill="#6A453B" d="M10,0C4.479,0,0,4.478,0,10s4.479,10,10,10c5.523,0,10-4.478,10-10S15.523,0,10,0z M16.016,13.008
			c0,1.674-1.361,3.034-3.035,3.034H7.02c-1.674,0-3.035-1.36-3.035-3.034V7.047c0-1.674,1.361-3.035,3.035-3.035h5.961
			c1.674,0,3.035,1.361,3.035,3.035V13.008z"/>
	</g>
</g>
<g id="movil">
</g>
</svg>
