<?xml version="1.0" encoding="utf-8"?>
<!-- Generator: Adobe Illustrator 16.0.0, SVG Export Plug-In . SVG Version: 6.00 Build 0)  -->
<!DOCTYPE svg PUBLIC "-//W3C//DTD SVG 1.1//EN" "http://www.w3.org/Graphics/SVG/1.1/DTD/svg11.dtd">
<svg version="1.1" xmlns="http://www.w3.org/2000/svg" xmlns:xlink="http://www.w3.org/1999/xlink" x="0px" y="0px" width="13.74px"
	 height="18px" viewBox="0 0 13.74 18" enable-background="new 0 0 13.74 18" xml:space="preserve">
<g id="desktop">
	<g>
		<path fill="#FFFFFF" d="M6.869,0C3.08,0,0,3.079,0,6.894c0,0.165,0.143,2.202,0.641,3.15c1.396,3.221,4.713,6.609,5.852,7.722
			c0.354,0.332,0.473,0.284,0.756,0.024c1.113-1.113,4.479-4.549,5.875-7.793c0.592-1.257,0.617-3.033,0.617-3.104
			C13.74,3.079,10.66,0,6.869,0z M6.869,10.423c-1.965,0-3.553-1.587-3.553-3.553c0-1.967,1.588-3.554,3.553-3.554
			c1.967,0,3.555,1.587,3.555,3.554C10.424,8.836,8.836,10.423,6.869,10.423z"/>
		<path fill="#FFFFFF" d="M6.869,4.737c-1.184,0-2.131,0.947-2.131,2.133c0,1.184,0.947,2.131,2.131,2.131
			c1.186,0,2.133-0.947,2.133-2.131C9.002,5.685,8.055,4.737,6.869,4.737z"/>
	</g>
</g>
<g id="movil">
</g>
</svg>
