<?xml version="1.0" encoding="utf-8"?>
<!-- Generator: Adobe Illustrator 16.0.0, SVG Export Plug-In . SVG Version: 6.00 Build 0)  -->
<!DOCTYPE svg PUBLIC "-//W3C//DTD SVG 1.1//EN" "http://www.w3.org/Graphics/SVG/1.1/DTD/svg11.dtd">
<svg version="1.1" xmlns="http://www.w3.org/2000/svg" xmlns:xlink="http://www.w3.org/1999/xlink" x="0px" y="0px" width="20px"
	 height="20px" viewBox="0 0 20 20" enable-background="new 0 0 20 20" xml:space="preserve">
<g id="desktop">
	<g>
		<circle fill="#55ACEE" cx="10" cy="10" r="10"/>
		<g>
			<path fill="#FFFFFF" d="M16.125,7.188c-0.428,0.19-0.889,0.316-1.371,0.375c0.492-0.296,0.871-0.764,1.049-1.321
				c-0.461,0.273-0.973,0.474-1.516,0.579c-0.438-0.462-1.059-0.753-1.746-0.753c-1.32,0-2.391,1.068-2.391,2.389
				c0,0.186,0.021,0.37,0.062,0.546c-1.988-0.1-3.748-1.053-4.928-2.498c-0.205,0.352-0.324,0.763-0.324,1.2
				c0,0.83,0.422,1.561,1.064,1.99c-0.391-0.011-0.76-0.12-1.082-0.3c0,0.013,0,0.021,0,0.033c0,1.156,0.822,2.122,1.916,2.343
				c-0.199,0.053-0.412,0.083-0.629,0.083c-0.154,0-0.303-0.016-0.449-0.042c0.303,0.949,1.186,1.641,2.232,1.66
				c-0.818,0.639-1.85,1.021-2.969,1.021c-0.191,0-0.385-0.01-0.57-0.033c1.057,0.679,2.314,1.074,3.664,1.074
				c4.396,0,6.801-3.642,6.801-6.802c0-0.103-0.002-0.208-0.008-0.308C15.4,8.087,15.805,7.665,16.125,7.188L16.125,7.188z"/>
		</g>
	</g>
</g>
<g id="movil">
</g>
</svg>
