<?xml version="1.0" encoding="utf-8"?>
<!-- Generator: Adobe Illustrator 16.0.0, SVG Export Plug-In . SVG Version: 6.00 Build 0)  -->
<!DOCTYPE svg PUBLIC "-//W3C//DTD SVG 1.1//EN" "http://www.w3.org/Graphics/SVG/1.1/DTD/svg11.dtd">
<svg version="1.1" xmlns="http://www.w3.org/2000/svg" xmlns:xlink="http://www.w3.org/1999/xlink" x="0px" y="0px" width="20px"
	 height="20px" viewBox="0 0 20 20" enable-background="new 0 0 20 20" xml:space="preserve">
<g id="desktop">
	<g>
		<circle fill="#CB2027" cx="10" cy="10" r="10"/>
		<path fill="#F2F2F2" d="M10.806,12.798c-0.756-0.059-1.072-0.434-1.666-0.794c-0.326,1.71-0.725,3.35-1.904,4.205
			c-0.363-2.584,0.535-4.524,0.953-6.585C7.476,8.426,8.275,6.016,9.775,6.609c1.848,0.73-1.6,4.454,0.715,4.919
			c2.416,0.485,3.402-4.191,1.904-5.712C10.228,3.619,6.093,5.766,6.601,8.91c0.125,0.769,0.918,1.002,0.318,2.062
			c-1.387-0.307-1.799-1.399-1.746-2.855c0.086-2.385,2.143-4.054,4.205-4.285c2.609-0.292,5.059,0.958,5.396,3.412
			C15.154,10.014,13.597,13.013,10.806,12.798L10.806,12.798z"/>
	</g>
</g>
<g id="movil">
</g>
</svg>
