<?xml version="1.0" encoding="utf-8"?>
<!-- Generator: Adobe Illustrator 16.0.0, SVG Export Plug-In . SVG Version: 6.00 Build 0)  -->
<!DOCTYPE svg PUBLIC "-//W3C//DTD SVG 1.1//EN" "http://www.w3.org/Graphics/SVG/1.1/DTD/svg11.dtd">
<svg version="1.1" xmlns="http://www.w3.org/2000/svg" xmlns:xlink="http://www.w3.org/1999/xlink" x="0px" y="0px" width="14px"
	 height="14px" viewBox="0 0 14 14" enable-background="new 0 0 14 14" xml:space="preserve">
<g id="desktop">
	<path fill="#FFFFFF" d="M2.815,6.06c1.12,2.201,2.924,3.997,5.125,5.125l1.712-1.712c0.209-0.209,0.521-0.279,0.793-0.186
		c0.872,0.288,1.812,0.444,2.777,0.444C13.649,9.73,14,10.08,14,10.508v2.715C14,13.649,13.649,14,13.223,14
		C5.918,14,0,8.082,0,0.777C0,0.351,0.351,0,0.777,0H3.5c0.427,0,0.777,0.351,0.777,0.777c0,0.973,0.156,1.906,0.443,2.777
		C4.807,3.826,4.745,4.13,4.527,4.348L2.815,6.06z"/>
</g>
<g id="movil">
</g>
</svg>
