<?xml version="1.0" encoding="utf-8"?>
<!-- Generator: Adobe Illustrator 16.0.0, SVG Export Plug-In . SVG Version: 6.00 Build 0)  -->
<!DOCTYPE svg PUBLIC "-//W3C//DTD SVG 1.1//EN" "http://www.w3.org/Graphics/SVG/1.1/DTD/svg11.dtd">
<svg version="1.1" id="page" xmlns="http://www.w3.org/2000/svg" xmlns:xlink="http://www.w3.org/1999/xlink" x="0px" y="0px"
	 width="341.666px" height="80px" viewBox="0 0 341.666 80" enable-background="new 0 0 341.666 80" xml:space="preserve">
<g>
	<g>
		<polygon fill="#BD4400" points="261.217,80 0,80 0,0 341.666,0 		"/>
	</g>
	<g>
		<polygon fill="#E35100" points="261.217,0 0,0 0,80 341.666,80 		"/>
	</g>
	<g>
		<g>
			<g>
				<polygon fill="#FFFFFF" points="86.643,48.954 96.338,26.098 109.539,26.115 105.813,34.977 116.896,26.098 125.931,26.098 
					115.127,35.125 121.375,43.337 129.299,23.418 110.495,23.418 112.002,19.264 162.903,19.262 161.732,23.413 142.748,23.413 
					137.414,38.893 150.164,26.098 161.859,26.098 159.991,34.818 169.824,26.096 182.023,26.096 176.984,48.952 164.857,48.953 
					166.121,40.764 156.85,48.953 145.596,48.953 147.074,40.68 138.193,48.953 109.482,48.953 103.318,40.763 99.967,48.953 
					86.643,48.954 				"/>
			</g>
		</g>
		<g>
			<g>
				<path fill="#FFFFFF" d="M87.311,59.695v-4.277c0-2.086,0.885-3.129,2.654-3.129c0.281,0,0.536,0.031,0.765,0.094
					s0.422,0.147,0.58,0.255s0.297,0.245,0.416,0.413s0.214,0.342,0.284,0.521s0.127,0.39,0.17,0.63s0.072,0.473,0.088,0.697
					s0.023,0.476,0.023,0.753v0.07h-0.891v-0.076c0-0.016,0-0.041,0-0.076c0-0.285-0.003-0.501-0.009-0.647s-0.021-0.34-0.044-0.58
					s-0.066-0.424-0.129-0.551s-0.145-0.26-0.246-0.398s-0.238-0.238-0.41-0.299s-0.375-0.091-0.609-0.091
					c-0.328,0-0.609,0.056-0.844,0.167s-0.416,0.267-0.545,0.466s-0.222,0.414-0.278,0.645s-0.085,0.484-0.085,0.762v5.039
					c0,0.258,0.023,0.489,0.07,0.694s0.128,0.401,0.243,0.589s0.288,0.333,0.519,0.437s0.514,0.155,0.85,0.155
					c0.309,0,0.572-0.055,0.791-0.164s0.383-0.259,0.492-0.448s0.187-0.386,0.231-0.589s0.067-0.428,0.067-0.674v-1.705h-1.236
					v-0.674h2.127v4.811h-0.393L91.7,61.529c-0.133,0.348-0.368,0.625-0.706,0.832s-0.712,0.311-1.122,0.311
					c-0.27,0-0.517-0.024-0.741-0.073s-0.419-0.112-0.583-0.19s-0.312-0.179-0.442-0.302s-0.238-0.245-0.322-0.366
					s-0.157-0.262-0.22-0.422s-0.109-0.305-0.141-0.434s-0.056-0.275-0.073-0.439s-0.028-0.297-0.032-0.398
					S87.311,59.828,87.311,59.695z"/>
				<path fill="#FFFFFF" d="M96.721,60.035V52.43h0.891v7.811c0,0.578,0.131,1.009,0.393,1.292s0.703,0.425,1.324,0.425
					c0.586,0,1.004-0.143,1.254-0.428s0.375-0.715,0.375-1.289V52.43h0.885v7.605c0,1.758-0.838,2.637-2.514,2.637
					c-0.402,0-0.756-0.047-1.062-0.141s-0.557-0.22-0.75-0.378s-0.352-0.352-0.473-0.58s-0.205-0.467-0.252-0.715
					S96.721,60.336,96.721,60.035z"/>
				<path fill="#FFFFFF" d="M106.822,62.514h-0.896l1.992-10.084h1.16l1.992,10.084h-0.902l-0.504-2.625h-2.326L106.822,62.514z
					 M107.443,59.297h2.109l-1.061-5.941L107.443,59.297z"/>
				<path fill="#FFFFFF" d="M115.201,62.514V52.43h2.268c0.383,0,0.723,0.052,1.02,0.155s0.543,0.244,0.736,0.422
					s0.352,0.396,0.475,0.653s0.211,0.531,0.264,0.82s0.078,0.607,0.078,0.955v4.102c0,1.984-0.857,2.977-2.572,2.977H115.201z
					 M116.092,61.799h1.377c1.121,0,1.682-0.688,1.682-2.062v-4.5c0-1.395-0.561-2.092-1.682-2.092h-1.377V61.799z"/>
				<path fill="#FFFFFF" d="M124.775,62.514h-0.896l1.992-10.084h1.16l1.992,10.084h-0.902l-0.504-2.625h-2.326L124.775,62.514z
					 M125.396,59.297h2.109l-1.061-5.941L125.396,59.297z"/>
				<path fill="#FFFFFF" d="M133.154,62.514V52.43h0.891v9.369h2.818v0.715H133.154z"/>
				<path fill="#FFFFFF" d="M140.994,62.514h-0.896l1.992-10.084h1.16l1.992,10.084h-0.902l-0.504-2.625h-2.326L140.994,62.514z
					 M141.615,59.297h2.109l-1.061-5.941L141.615,59.297z"/>
				<path fill="#FFFFFF" d="M148.588,62.514V61.84c0.199,0,0.354-0.001,0.463-0.003s0.227-0.013,0.35-0.032s0.213-0.042,0.27-0.067
					s0.117-0.071,0.182-0.138s0.107-0.136,0.129-0.208s0.043-0.176,0.064-0.311s0.033-0.273,0.037-0.416s0.006-0.327,0.006-0.554
					V52.43h0.891v7.682c0,0.305-0.006,0.557-0.02,0.756s-0.043,0.398-0.088,0.598s-0.111,0.356-0.197,0.472
					s-0.199,0.221-0.342,0.316s-0.32,0.163-0.531,0.202s-0.461,0.059-0.75,0.059H148.588z"/>
				<path fill="#FFFFFF" d="M156.006,62.514h-0.896l1.992-10.084h1.16l1.992,10.084h-0.902l-0.504-2.625h-2.326L156.006,62.514z
					 M156.627,59.297h2.109l-1.061-5.941L156.627,59.297z"/>
				<path fill="#FFFFFF" d="M164.385,62.514V52.43h2.689c0.34,0,0.639,0.047,0.896,0.141s0.467,0.218,0.625,0.372
					s0.285,0.346,0.383,0.574s0.166,0.465,0.203,0.709s0.055,0.515,0.055,0.812c0,1.285-0.469,2.1-1.406,2.443l1.559,5.033h-0.949
					l-1.471-4.922h-1.693v4.922H164.385z M165.275,56.877h1.793c0.254,0,0.469-0.051,0.645-0.152s0.309-0.246,0.396-0.434
					s0.148-0.383,0.184-0.586s0.053-0.436,0.053-0.697c0-0.215-0.01-0.408-0.031-0.58s-0.061-0.34-0.117-0.504
					s-0.133-0.302-0.227-0.413s-0.217-0.2-0.369-0.267s-0.33-0.1-0.533-0.1h-1.793V56.877z"/>
				<path fill="#FFFFFF" d="M173.953,62.514h-0.896l1.992-10.084h1.16l1.992,10.084h-0.902l-0.504-2.625h-2.326L173.953,62.514z
					 M174.574,59.297h2.109l-1.061-5.941L174.574,59.297z"/>
			</g>
		</g>
	</g>
</g>
</svg>
