<?xml version="1.0" encoding="utf-8"?>
<!-- Generator: Adobe Illustrator 16.0.0, SVG Export Plug-In . SVG Version: 6.00 Build 0)  -->
<!DOCTYPE svg PUBLIC "-//W3C//DTD SVG 1.1//EN" "http://www.w3.org/Graphics/SVG/1.1/DTD/svg11.dtd">
<svg version="1.1" id="Capa_1" xmlns="http://www.w3.org/2000/svg" xmlns:xlink="http://www.w3.org/1999/xlink" x="0px" y="0px"
	 width="95.381px" height="43.41px" viewBox="0 0 95.381 43.41" enable-background="new 0 0 95.381 43.41" xml:space="preserve">
<g>
	<g>
		<g>
			<polygon fill="#E25100" points="0,29.691 9.695,6.836 22.896,6.854 19.171,15.713 30.253,6.835 39.288,6.835 28.484,15.862 
				34.732,24.074 42.656,4.154 23.853,4.154 25.359,0 76.261,0 75.09,4.15 56.104,4.15 50.771,19.629 63.521,6.834 75.217,6.834 
				73.349,15.555 83.183,6.834 95.381,6.834 90.342,29.689 78.215,29.69 79.479,21.502 70.207,29.69 58.953,29.69 60.433,21.417 
				51.551,29.69 22.84,29.69 16.676,21.5 13.324,29.69 			"/>
		</g>
	</g>
	<g>
		<g>
			<path d="M0.668,40.433v-4.277c0-2.086,0.885-3.129,2.654-3.129c0.281,0,0.536,0.031,0.765,0.094
				c0.229,0.063,0.422,0.147,0.58,0.256c0.158,0.107,0.297,0.244,0.416,0.412s0.214,0.342,0.284,0.521
				c0.07,0.18,0.127,0.391,0.17,0.63c0.043,0.24,0.072,0.474,0.088,0.697s0.023,0.476,0.023,0.753v0.07h-0.89v-0.076
				c0-0.016,0-0.041,0-0.076c0-0.285-0.003-0.501-0.009-0.646c-0.006-0.146-0.021-0.341-0.044-0.58
				c-0.023-0.24-0.066-0.424-0.129-0.552c-0.063-0.127-0.145-0.26-0.246-0.397c-0.101-0.139-0.238-0.238-0.41-0.299
				c-0.172-0.062-0.375-0.092-0.609-0.092c-0.328,0-0.609,0.057-0.844,0.168c-0.235,0.11-0.416,0.266-0.545,0.465
				S1.7,34.789,1.644,35.02s-0.085,0.483-0.085,0.763v5.038c0,0.259,0.023,0.489,0.07,0.694s0.128,0.4,0.243,0.589
				c0.115,0.188,0.288,0.333,0.519,0.437c0.231,0.104,0.514,0.155,0.85,0.155c0.309,0,0.572-0.055,0.791-0.163
				c0.219-0.109,0.383-0.26,0.492-0.449c0.109-0.188,0.187-0.385,0.231-0.588s0.067-0.429,0.067-0.675v-1.704H3.586V38.44h2.127
				v4.812H5.321l-0.264-0.984c-0.133,0.348-0.368,0.625-0.706,0.832S3.639,43.41,3.229,43.41c-0.27,0-0.517-0.023-0.741-0.072
				c-0.224-0.049-0.419-0.112-0.583-0.19c-0.164-0.078-0.312-0.179-0.442-0.302S1.225,42.6,1.141,42.479s-0.157-0.263-0.22-0.422
				c-0.063-0.16-0.109-0.306-0.141-0.435c-0.032-0.129-0.056-0.274-0.073-0.438s-0.028-0.297-0.032-0.397
				C0.671,40.685,0.668,40.565,0.668,40.433z"/>
			<path d="M10.079,40.772v-7.604h0.891v7.811c0,0.578,0.131,1.009,0.393,1.292c0.262,0.283,0.703,0.425,1.324,0.425
				c0.586,0,1.004-0.143,1.254-0.428s0.375-0.715,0.375-1.289v-7.811H15.2v7.604c0,1.758-0.838,2.638-2.514,2.638
				c-0.402,0-0.757-0.048-1.063-0.142c-0.306-0.095-0.557-0.22-0.75-0.378s-0.351-0.352-0.472-0.58s-0.205-0.467-0.252-0.715
				S10.079,41.074,10.079,40.772z"/>
			<path d="M20.18,43.251h-0.896l1.992-10.084h1.16l1.992,10.084h-0.902l-0.504-2.625h-2.326L20.18,43.251z M20.801,40.035h2.109
				l-1.061-5.941L20.801,40.035z"/>
			<path d="M28.559,43.251V33.167h2.268c0.383,0,0.723,0.051,1.02,0.154c0.297,0.104,0.542,0.244,0.735,0.422
				s0.352,0.396,0.475,0.653s0.211,0.531,0.264,0.819c0.053,0.289,0.079,0.607,0.079,0.955v4.103c0,1.983-0.857,2.978-2.572,2.978
				H28.559z M29.45,42.537h1.377c1.121,0,1.682-0.688,1.682-2.062v-4.5c0-1.395-0.561-2.092-1.682-2.092H29.45V42.537z"/>
			<path d="M38.133,43.251h-0.896l1.992-10.084h1.16l1.992,10.084h-0.902l-0.504-2.625h-2.326L38.133,43.251z M38.754,40.035h2.109
				l-1.061-5.941L38.754,40.035z"/>
			<path d="M46.512,43.251V33.167h0.891v9.369h2.819v0.715H46.512z"/>
			<path d="M54.353,43.251h-0.896l1.992-10.084h1.16l1.992,10.084h-0.902l-0.504-2.625h-2.326L54.353,43.251z M54.974,40.035h2.108
				l-1.062-5.941L54.974,40.035z"/>
			<path d="M61.946,43.251v-0.674c0.199,0,0.354-0.002,0.463-0.004s0.226-0.013,0.349-0.031c0.123-0.02,0.214-0.043,0.271-0.067
				s0.117-0.071,0.182-0.138c0.064-0.067,0.107-0.137,0.129-0.209c0.021-0.071,0.043-0.176,0.064-0.311
				c0.021-0.135,0.033-0.273,0.037-0.416s0.006-0.326,0.006-0.554v-7.683h0.892v7.683c0,0.305-0.007,0.557-0.021,0.756
				s-0.043,0.397-0.088,0.599c-0.045,0.199-0.11,0.355-0.196,0.471c-0.087,0.117-0.2,0.222-0.343,0.316
				c-0.144,0.096-0.319,0.163-0.53,0.202s-0.461,0.06-0.75,0.06H61.946z"/>
			<path d="M69.364,43.251h-0.896l1.992-10.084h1.16l1.992,10.084H72.71l-0.504-2.625H69.88L69.364,43.251z M69.985,40.035h2.109
				l-1.062-5.941L69.985,40.035z"/>
			<path d="M77.743,43.251V33.167h2.689c0.34,0,0.639,0.047,0.896,0.141s0.466,0.218,0.624,0.372
				c0.158,0.153,0.285,0.346,0.384,0.573c0.099,0.229,0.165,0.465,0.202,0.709s0.057,0.516,0.057,0.812
				c0,1.285-0.47,2.1-1.406,2.443l1.559,5.033h-0.949l-1.471-4.922h-1.693v4.922H77.743z M78.633,37.615h1.793
				c0.255,0,0.47-0.052,0.646-0.152c0.176-0.102,0.308-0.246,0.396-0.435c0.089-0.188,0.149-0.383,0.185-0.586
				c0.037-0.202,0.054-0.437,0.054-0.696c0-0.216-0.011-0.408-0.032-0.58s-0.061-0.34-0.117-0.504
				c-0.056-0.164-0.132-0.303-0.226-0.414c-0.095-0.11-0.218-0.199-0.369-0.267s-0.33-0.101-0.532-0.101h-1.794v3.734H78.633z"/>
			<path d="M87.312,43.251h-0.896l1.992-10.084h1.16l1.992,10.084h-0.902l-0.504-2.625h-2.326L87.312,43.251z M87.933,40.035h2.108
				l-1.062-5.941L87.933,40.035z"/>
		</g>
	</g>
</g>
</svg>
